<?xml version="1.0" standalone="no"?>
<!DOCTYPE svg PUBLIC "-//W3C//DTD SVG 1.1//EN" "http://www.w3.org/Graphics/SVG/1.1/DTD/svg11.dtd" >
<svg xmlns="http://www.w3.org/2000/svg">
<metadata></metadata>
<defs>
<font id="montreal_serial_mediumitalic" horiz-adv-x="1230" >
<font-face units-per-em="2048" ascent="1638" descent="-410" />
<missing-glyph horiz-adv-x="593" />
<glyph horiz-adv-x="0" />
<glyph horiz-adv-x="0" />
<glyph horiz-adv-x="682" />
<glyph unicode="&#xd;" horiz-adv-x="593" />
<glyph unicode=" "  horiz-adv-x="593" />
<glyph unicode="&#x09;" horiz-adv-x="593" />
<glyph unicode="&#xa0;" horiz-adv-x="593" />
<glyph unicode="!" horiz-adv-x="520" d="M127 109q0 61 45.5 104t108.5 43q57 0 97 -41.5t40 -101.5t-45 -103t-109 -43q-57 0 -97 41.5t-40 100.5zM186 381l115 1096h227l-114 -1096h-228z" />
<glyph unicode="&#x22;" horiz-adv-x="796" d="M121 958l174 570l235 -51l-249 -553zM483 958l170 570l240 -51l-254 -553z" />
<glyph unicode="#" horiz-adv-x="1189" d="M129 451l23 110h237l74 352h-236l23 111h237l91 428h110l-90 -428h205l92 428h111l-93 -428h238l-25 -111h-235l-76 -352h238l-25 -110h-235l-91 -428h-110l90 428h-207l-90 -428h-111l91 428h-236zM500 561h205l75 352h-207z" />
<glyph unicode="$" horiz-adv-x="1069" d="M29 250l159 153q122 -229 330 -229q117 0 204 77.5t87 180.5q0 74 -52 119t-214 111q-131 55 -171 76t-81 61q-96 90 -96 235q0 114 56.5 216t153 166t207.5 71l17 151h151l-18 -147q74 -9 113.5 -22t87.5 -42q50 -31 82.5 -65.5t64.5 -89.5l-172 -133q-85 166 -252 166 q-100 0 -172 -65.5t-72 -154.5q0 -62 41 -106q26 -29 62.5 -48.5t144.5 -62.5q161 -66 248 -135q54 -45 84.5 -110.5t30.5 -141.5q0 -102 -48 -203t-133 -176q-63 -57 -131 -86q-45 -21 -137 -34l-14 -164h-154l19 157q-85 1 -144 20t-123 64q-53 36 -88 78.5t-71 112.5z " />
<glyph unicode="%" horiz-adv-x="1806" d="M188 1114q0 162 121.5 277.5t292.5 115.5q149 0 254 -111.5t105 -269.5q0 -162 -120.5 -276.5t-291.5 -114.5q-149 0 -255 111t-106 268zM379 1118q0 -84 53.5 -142t128.5 -58q88 0 149.5 60t61.5 146q0 85 -53.5 145t-128.5 60q-87 0 -149 -62t-62 -149zM401 29 l979 1478l158 -94l-981 -1479zM1001 346q0 165 120.5 281t291.5 116q149 0 255 -112.5t106 -272.5q0 -161 -121.5 -275t-292.5 -114q-150 0 -254.5 110t-104.5 267zM1190 350q0 -83 53 -143t127 -60q90 0 152.5 61.5t62.5 149.5q0 85 -54 146t-130 61q-87 0 -149 -63.5 t-62 -151.5z" />
<glyph unicode="&#x26;" horiz-adv-x="1372" d="M115 375q0 299 379 499q-119 151 -119 289q0 142 113 241t276 99q146 0 239 -77t93 -199q0 -212 -297 -396l272 -368l205 176l127 -147l-207 -183l164 -207l-176 -141l-172 223q-146 -115 -256 -165t-219 -50q-183 0 -302.5 114.5t-119.5 291.5zM340 412 q0 -97 66.5 -166.5t160.5 -69.5q62 0 133.5 36.5t190.5 127.5l-287 385q-147 -91 -205.5 -160.5t-58.5 -152.5zM598 1182q0 -85 94 -199q100 68 142.5 119.5t42.5 105.5q0 52 -35 82.5t-92 30.5q-65 0 -108.5 -39.5t-43.5 -99.5z" />
<glyph unicode="'" horiz-adv-x="438" d="M121 950l172 570l237 -52l-251 -550z" />
<glyph unicode="(" horiz-adv-x="493" d="M147 516q0 295 89 610q53 182 135 369q54 118 137 256l147 -70q-63 -129 -114 -256q-64 -167 -105 -331q-43 -169 -60.5 -294.5t-17.5 -273.5q0 -246 39 -475q20 -115 62 -258l-166 -69q-53 144 -80 258q-66 264 -66 534z" />
<glyph unicode=")" horiz-adv-x="495" d="M-6 -201q85 177 127 289q52 137 98 330q40 160 55 273.5t15 254.5q0 211 -33 440q-18 120 -66 289l162 72q48 -126 86 -272q64 -262 64 -547q0 -249 -84 -557q-58 -203 -135 -375q-45 -101 -142 -268z" />
<glyph unicode="*" horiz-adv-x="899" d="M180 1124l66 209l252 -98v283h213l-60 -285l277 100l26 -211l-278 -32l143 -220l-196 -106l-76 235l-137 -229l-172 119l202 205z" />
<glyph unicode="+" d="M184 643l19 193h389l41 387h221l-39 -387h387l-20 -193h-387l-39 -389h-226l41 389h-387z" />
<glyph unicode="," horiz-adv-x="436" d="M-6 -276l170 571l237 -51l-249 -553z" />
<glyph unicode="-" horiz-adv-x="649" d="M117 387l22 221h498l-25 -221h-495z" />
<glyph unicode="." horiz-adv-x="413" d="M74 111q0 62 45.5 106.5t109.5 44.5q56 0 96 -43.5t40 -103.5q0 -61 -45.5 -104.5t-108.5 -43.5q-57 0 -97 42t-40 102z" />
<glyph unicode="/" horiz-adv-x="542" d="M12 0l490 1518l180 -41l-487 -1516z" />
<glyph unicode="0" d="M137 578q0 198 48 370t131.5 293.5t201.5 190.5t254 69q215 0 346 -170t131 -450q0 -258 -82.5 -466.5t-229 -327t-327.5 -118.5q-194 0 -321.5 142.5t-149.5 386.5q-2 27 -2 80zM371 594q0 -7 1 -19t1 -18q7 -170 77.5 -268.5t184.5 -98.5q109 0 195.5 87t135 242.5 t48.5 350.5q0 188 -71.5 299t-192.5 111q-109 0 -195.5 -88t-135 -244.5t-48.5 -353.5z" />
<glyph unicode="1" d="M291 0l18 193h219l117 1091h-217l18 193h447l-135 -1284h217l-21 -193h-663z" />
<glyph unicode="2" d="M115 0l20 176l553 459q158 130 236 231q75 93 75 203q0 102 -70 165.5t-184 63.5q-133 0 -211.5 -84t-80.5 -225h-236q19 238 169.5 377t389.5 139q205 0 332 -112.5t127 -296.5q0 -148 -86.5 -278.5t-296.5 -299.5l-406 -325l717 4l-20 -197h-1028z" />
<glyph unicode="3" d="M145 385q0 5 1 21.5t1 31.5h236v-30q0 -112 65 -176t179 -64q129 0 220 84.5t91 204.5q0 103 -68 163t-188 60q-7 0 -13.5 -0.5t-17 -1.5t-20.5 -2l22 194q23 -4 49 -4q109 0 185 73t76 177q0 87 -61 142t-157 55q-105 0 -176 -60t-84 -161h-227q40 196 177.5 304.5 t344.5 108.5q185 0 299.5 -99t114.5 -259q0 -99 -51 -189q-35 -62 -80 -100.5t-117 -69.5q228 -70 228 -315q0 -137 -76 -253.5t-206.5 -184.5t-283.5 -68q-212 0 -337.5 113t-125.5 305z" />
<glyph unicode="4" d="M113 383l852 1094h165l-108 -1031h172l-20 -192h-170l-29 -254h-230l27 254h-616zM393 446h402l53 506q5 64 43 156q-13 -23 -29 -49.5t-24 -40.5q-18 -28 -41 -55z" />
<glyph unicode="5" d="M82 233l141 154q49 -106 133.5 -161.5t194.5 -55.5q158 0 269.5 109t111.5 264q0 125 -88 202.5t-228 77.5q-94 0 -194 -39l-82 41l244 652h669l-20 -193h-506l-119 -297q59 14 121 14q193 0 315.5 -122.5t122.5 -315.5q0 -160 -84 -297t-228 -217t-312 -80 q-162 0 -281.5 68.5t-179.5 195.5z" />
<glyph unicode="6" d="M133 410q0 192 156 393q103 130 147 182l443 528l159 -120l-415 -480q92 27 157 27q182 0 299 -115.5t117 -296.5q0 -152 -79 -281t-215 -204.5t-296 -75.5q-211 0 -342 122.5t-131 320.5zM358 432q0 -117 75.5 -189.5t195.5 -72.5q141 0 241.5 98t100.5 236 q0 115 -77.5 187.5t-199.5 72.5q-132 0 -228.5 -91t-105.5 -224q-2 -6 -2 -17z" />
<glyph unicode="7" d="M119 63l880 1221h-745l20 193h1000l-19 -168l-950 -1344z" />
<glyph unicode="8" d="M158 360q0 111 55 209q53 91 127 142q34 26 109 53q-181 70 -181 285q0 195 144.5 324.5t361.5 129.5q190 0 305 -100t115 -266q0 -133 -66.5 -231.5t-183.5 -141.5q66 -27 96 -53q117 -94 117 -269q0 -131 -72 -240t-198 -172t-277 -63q-202 0 -327 109t-125 284z M401 391q0 -100 64.5 -161.5t167.5 -61.5q119 0 203 80t84 192q0 99 -66 162.5t-168 63.5q-114 0 -199.5 -76.5t-85.5 -183.5v-15zM494 1063q0 -94 58.5 -151.5t154.5 -57.5q109 0 183.5 77t74.5 187q0 86 -58.5 140.5t-152.5 54.5q-107 0 -180 -67.5t-78 -168.5 q-2 -6 -2 -14z" />
<glyph unicode="9" d="M190 946q0 152 79.5 281.5t216 205.5t296.5 76q207 0 339 -121t132 -313q0 -123 -51 -231q-44 -95 -102 -170q-87 -109 -129 -160l-461 -553l-162 121l420 483q-88 -35 -158 -35q-180 0 -300 119t-120 297zM418 977q0 -119 75.5 -192.5t196.5 -73.5q139 0 237.5 98 t98.5 235q0 116 -74 188.5t-192 72.5q-132 0 -228.5 -83.5t-111.5 -211.5q-2 -10 -2 -33z" />
<glyph unicode=":" horiz-adv-x="520" d="M127 111q0 62 46 106.5t110 44.5q55 0 95 -43.5t40 -103.5q0 -62 -45 -105t-109 -43q-57 0 -97 42t-40 102zM201 807q0 63 45 106t110 43q56 0 96 -41.5t40 -101.5q0 -61 -46 -104t-110 -43q-56 0 -95.5 41.5t-39.5 99.5z" />
<glyph unicode=";" horiz-adv-x="479" d="M10 -276l172 571l236 -51l-250 -553zM172 809q0 61 46.5 104t111.5 43q56 0 95.5 -41.5t39.5 -101.5q0 -61 -46.5 -105t-111.5 -44q-56 0 -95.5 42.5t-39.5 102.5z" />
<glyph unicode="&#x3c;" horiz-adv-x="829" d="M129 500l602 487l113 -137l-441 -346l367 -359l-141 -141z" />
<glyph unicode="=" d="M176 498l21 190h983l-21 -190h-983zM207 788l18 191h983l-18 -191h-983z" />
<glyph unicode="&#x3e;" horiz-adv-x="831" d="M90 147l447 353l-369 356l139 137l502 -499l-608 -488z" />
<glyph unicode="?" horiz-adv-x="1058" d="M133 1108q35 96 70 149q79 120 198.5 184t262.5 64q203 0 327.5 -117t124.5 -307q0 -148 -79.5 -266t-223.5 -184l-121 -56q-12 -6 -26 -12q-11 -11 -21 -14q-17 -12 -22 -39l-7 -27l-4 -8l-8 -92h-223l16 139q9 81 28 112t75 54l41 17q9 6 30 14q131 57 191 96 q133 83 133 256q0 110 -68.5 178t-177.5 68q-115 0 -195 -66.5t-106 -185.5zM319 113q0 62 45 105.5t109 43.5q57 0 97 -43t40 -104q0 -62 -45.5 -105t-109.5 -43q-57 0 -96.5 43t-39.5 103z" />
<glyph unicode="@" horiz-adv-x="1800" d="M236 786q26 237 165 414q102 126 238.5 204t284.5 95q114 14 218 -4.5t186 -64.5t146 -116t98.5 -159.5t43.5 -195t-19 -222.5q-36 -158 -117.5 -267.5t-185.5 -152.5q-103 -40 -180 -0.5t-80 123.5v29q-13 -34 -45 -70q-119 -134 -272 -65q-77 35 -115 128.5t-24 235.5 q2 27 10 72q26 126 85.5 224.5t137.5 152.5q107 71 201 55t133 -102q2 -3 5 -10.5t5 -10.5l23 111h102l-100 -436l-35 -174q-10 -45 -10 -80q-1 -60 33 -91t81 -14q27 9 51 28.5t70 68.5q37 40 70 110.5t51 155.5q23 124 11 229t-62.5 187.5t-125 137t-176.5 76t-216 5.5 q-216 -31 -373 -203t-184 -418q-7 -72 -5 -117q5 -131 52 -242.5t126 -186.5t178.5 -117.5t216.5 -41t232 49.5q154 62 277 188q32 32 53 62l33 -88q-28 -35 -53 -60q-194 -191 -418 -233q-179 -34 -341.5 13.5t-275 155t-169.5 273.5t-35 358zM694 596q-3 -73 19 -125 q27 -61 92.5 -72.5t118.5 37.5q29 29 50 64.5t52 111.5q8 21 45 150l4 14l19 92q13 68 10 119q-6 73 -61 107.5t-119 7.5q-56 -22 -96 -71.5t-80 -151.5q-22 -59 -31 -103q-23 -98 -23 -180z" />
<glyph unicode="A" horiz-adv-x="1292" d="M-51 0l741 1477h221l432 -1477h-249l-103 367h-612l-180 -367h-250zM469 555h471l-139 518q-21 79 -21 150v45q-20 -103 -63 -195z" />
<glyph unicode="B" horiz-adv-x="1150" d="M115 0l155 1477h373q114 0 178 -11q126 -22 201.5 -111.5t75.5 -215.5q0 -118 -55 -205t-160 -137q266 -50 266 -330q0 -105 -47 -201t-131 -162q-71 -56 -151.5 -80t-194.5 -24h-510zM373 197h221q148 0 236 70t88 190q0 107 -72.5 158t-220.5 51h-205zM440 862h156 q124 0 198 63t74 169q0 95 -60.5 140.5t-186.5 45.5h-136z" />
<glyph unicode="C" horiz-adv-x="1349" d="M141 645q0 173 67.5 331.5t181 273.5t270.5 183t329 68q137 0 264 -45q51 -18 93 -42t106 -73l-141 -182q-42 33 -64 49q-113 72 -266 72q-161 0 -299 -81.5t-218.5 -221.5t-80.5 -305q0 -214 134.5 -350t346.5 -136q110 0 217 43q57 23 140 80l100 -180 q-97 -64 -172 -96q-162 -64 -332 -64q-198 0 -352 85t-239 239t-85 352z" />
<glyph unicode="D" horiz-adv-x="1349" d="M115 0l155 1477h389q143 0 259 -29q209 -57 328.5 -222.5t119.5 -400.5q0 -177 -72.5 -341.5t-203.5 -284.5q-114 -103 -244.5 -151t-294.5 -48h-436zM373 209h207q150 0 278 78.5t202.5 214.5t74.5 297q0 212 -129 339.5t-342 127.5h-179z" />
<glyph unicode="E" horiz-adv-x="993" d="M115 0l155 1477h789l-21 -197h-553l-41 -387h478l-23 -195h-473l-53 -501h575l-20 -197h-813z" />
<glyph unicode="F" horiz-adv-x="851" d="M115 0l155 1477h736l-21 -197h-500l-41 -387h435l-23 -199h-434l-72 -694h-235z" />
<glyph unicode="G" horiz-adv-x="1611" d="M141 645q0 175 68 334t183.5 273.5t276 182.5t337.5 68q141 0 251 -39.5t207 -126.5q38 -34 64 -64.5t67 -92.5l-206 -138q-55 83 -91 117q-139 133 -325 133q-156 0 -292 -85.5t-217 -230.5t-81 -312q0 -216 131.5 -352t343.5 -136q188 0 320 106t182 293h-486l23 207 h739q-7 -94 -17.5 -147t-33.5 -121q-89 -258 -289 -401.5t-469 -143.5q-308 0 -497 186.5t-189 489.5z" />
<glyph unicode="H" horiz-adv-x="1359" d="M115 0l155 1477h238l-62 -570h658l61 570h236l-154 -1477h-237l75 702h-659l-76 -702h-235z" />
<glyph unicode="I" horiz-adv-x="464" d="M115 0l155 1477h238l-158 -1477h-235z" />
<glyph unicode="J" horiz-adv-x="753" d="M-37 82l137 176q71 -74 154 -74q52 0 94 26.5t64 72.5q28 63 43 209l102 985h236l-107 -1010q-12 -123 -30.5 -192t-55.5 -128q-52 -83 -144 -129.5t-202 -46.5q-160 0 -291 111z" />
<glyph unicode="K" horiz-adv-x="1169" d="M115 0l155 1477h234l-154 -1477h-235zM438 768l619 709h286l-626 -711l530 -766h-289z" />
<glyph unicode="L" horiz-adv-x="825" d="M115 0l155 1477h238l-135 -1268h467l-21 -209h-704z" />
<glyph unicode="M" horiz-adv-x="1771" d="M37 0l360 1477h203l293 -985q18 -63 25 -209q26 136 63 209l502 985h203l47 -1477h-234l-18 885v18q0 98 16 199q-30 -118 -72 -199l-462 -903h-154l-272 903q-23 72 -35 199q-6 -148 -23 -217l-207 -885h-235z" />
<glyph unicode="N" horiz-adv-x="1525" d="M115 0l155 1477h199l688 -992q49 -70 82 -192q-10 120 -10 194q0 7 1 18t1 15l100 957h236l-154 -1477h-194l-699 999q-38 52 -82 183q17 -170 17 -203q0 -6 -2 -12l-103 -967h-235z" />
<glyph unicode="O" horiz-adv-x="1681" d="M141 657q0 26 4 80q23 216 143 392.5t307.5 277t403.5 100.5q199 0 358 -87.5t248 -244t89 -354.5q0 -173 -68 -331t-183 -272.5t-273.5 -182.5t-331.5 -68q-203 0 -361.5 87t-247 244t-88.5 359zM381 678q0 -213 135 -351.5t342 -138.5q159 0 297 83t219.5 224t81.5 304 q0 209 -136.5 348t-342.5 139q-225 0 -397 -159t-197 -390q-2 -20 -2 -59z" />
<glyph unicode="P" horiz-adv-x="1017" d="M115 0l155 1477h387q111 0 174 -13q132 -28 205.5 -123t73.5 -241q0 -215 -135 -347t-354 -132h-205l-66 -621h-235zM436 817h142q133 0 212.5 72t79.5 192q0 97 -61 148t-180 51h-144z" />
<glyph unicode="Q" horiz-adv-x="1675" d="M141 649q0 175 67.5 333.5t181.5 272.5t272.5 181.5t332.5 68.5q202 0 360.5 -86.5t246.5 -241.5t88 -352q0 -201 -95 -389q-35 -71 -70.5 -120t-107.5 -126l191 -186l-178 -156l-185 224q-17 -9 -42 -21t-32 -16q-161 -66 -335 -66q-306 0 -500.5 190t-194.5 490z M381 678q0 -211 135 -350.5t340 -139.5q161 0 298.5 82t217.5 223t80 306q0 209 -136.5 348t-340.5 139q-224 0 -395.5 -159.5t-196.5 -389.5q-2 -20 -2 -59z" />
<glyph unicode="R" horiz-adv-x="1071" d="M115 0l155 1477h389q127 0 189 -15q126 -29 197 -125.5t71 -236.5q0 -183 -98 -298.5t-287 -156.5l365 -645h-281l-387 719l-78 -719h-235zM432 780h125q144 0 230.5 79t86.5 210q0 211 -251 211h-138z" />
<glyph unicode="S" horiz-adv-x="1069" d="M29 250l159 153q122 -229 330 -229q117 0 204 77.5t87 180.5q0 74 -52 119t-214 111q-131 55 -171 76t-81 61q-96 90 -96 235q0 194 148.5 330.5t361.5 136.5q139 0 238 -56t167 -173l-172 -133q-85 166 -252 166q-100 0 -172 -65.5t-72 -154.5q0 -62 41 -106 q26 -29 62.5 -48.5t144.5 -62.5q161 -66 248 -135q54 -45 84.5 -110.5t30.5 -141.5q0 -141 -74 -259t-202.5 -185.5t-282.5 -67.5q-322 0 -465 281z" />
<glyph unicode="T" horiz-adv-x="901" d="M106 1260l25 217h950l-22 -217h-357l-133 -1260h-237l133 1260h-359z" />
<glyph unicode="U" horiz-adv-x="1335" d="M168 414q0 54 12 164l92 899h238l-94 -877q-8 -76 -8 -147q0 -126 75 -196.5t207 -70.5q77 0 144.5 26t113.5 73q49 49 69.5 110.5t35.5 204.5l92 877h235l-94 -899q-13 -137 -41 -228q-57 -177 -212.5 -280t-364.5 -103q-229 0 -364.5 121.5t-135.5 325.5z" />
<glyph unicode="V" horiz-adv-x="1185" d="M111 1477h254l237 -985q19 -85 19 -193v-31q29 152 63 224l444 985h256l-698 -1477h-188z" />
<glyph unicode="W" horiz-adv-x="1970" d="M127 1477h240l200 -977q11 -51 11 -162q0 -16 -3 -66q42 178 60 226l405 979h201l199 -979q12 -70 12 -209v-17q27 157 57 228l404 977h244l-633 -1477h-205l-191 948q-16 82 -16 219v35q-38 -182 -70 -254l-391 -948h-205z" />
<glyph unicode="X" horiz-adv-x="1261" d="M-16 0l573 793l-344 684h274l168 -351q23 -47 35 -88q24 -67 31 -166q34 104 67 166q15 30 56 88l241 351h275l-488 -684l406 -793h-277l-237 502q-25 56 -33 88q-11 32 -15 58.5t-7 84.5q-24 -87 -54 -143q-23 -47 -51 -88l-342 -502h-278z" />
<glyph unicode="Y" horiz-adv-x="1032" d="M98 1477h269l206 -498q29 -71 29 -164q24 100 64 164l311 498h270l-545 -824l-69 -653h-234l68 653z" />
<glyph unicode="Z" horiz-adv-x="1128" d="M27 0l12 131l784 1053q44 59 123 121q-98 -37 -172 -37h-545l23 209h969l-17 -129l-774 -1049q-52 -69 -131 -129q98 37 166 37l651 2l-22 -209h-1067z" />
<glyph unicode="[" horiz-adv-x="509" d="M94 -225l203 1927h369l-19 -195h-145l-162 -1540h143l-20 -192h-369z" />
<glyph unicode="\" horiz-adv-x="868" d="M272 1475h185l258 -1475h-185z" />
<glyph unicode="]" horiz-adv-x="509" d="M-2 -225l20 192h144l162 1540h-142l19 195h368l-202 -1927h-369z" />
<glyph unicode="^" horiz-adv-x="743" d="M137 1231l391 242l338 -244l-100 -142l-262 168l-297 -159z" />
<glyph unicode="_" horiz-adv-x="966" d="M74 0h737v-66h-737v66z" />
<glyph unicode="`" horiz-adv-x="548" d="M156 1393l192 116l203 -331l-150 -93z" />
<glyph unicode="a" horiz-adv-x="1218" d="M117 434q0 157 72.5 292.5t195.5 215.5t264 80q171 0 275 -113q26 -29 41 -61l16 147h227l-104 -995h-227l14 137q-131 -168 -346 -168q-191 0 -309.5 128t-118.5 337zM348 457q0 -132 72.5 -212.5t191.5 -80.5q137 0 234.5 110t97.5 265q0 128 -74 207t-194 79 q-131 0 -229.5 -100t-98.5 -242v-26z" />
<glyph unicode="b" horiz-adv-x="1220" d="M115 0l155 1477h228l-64 -623q67 87 150 127.5t192 40.5q194 0 312 -126t118 -335q0 -119 -43 -228t-114.5 -189t-170.5 -127.5t-206 -47.5q-172 0 -266 105q-28 28 -48 69l-14 -143h-229zM383 446q0 -123 73.5 -197.5t194.5 -74.5q134 0 228 107t94 260 q0 127 -72.5 205.5t-191.5 78.5q-128 0 -216.5 -89.5t-105.5 -237.5q-4 -32 -4 -52z" />
<glyph unicode="c" horiz-adv-x="935" d="M117 432q0 162 80 298t218.5 214t303.5 78q84 0 148 -15.5t141 -54.5l-95 -192q-106 57 -204 57q-149 0 -253 -105.5t-104 -256.5q0 -127 78.5 -205t206.5 -78q59 0 109 15.5t112 52.5l62 -179q-66 -34 -72 -36q-125 -56 -264 -56q-209 0 -338 128t-129 335z" />
<glyph unicode="d" horiz-adv-x="1222" d="M117 422q0 165 73 303t199.5 217.5t276.5 79.5q109 0 181 -39.5t124 -128.5l65 623h228l-154 -1477h-229l16 147q-115 -178 -356 -178q-193 0 -308.5 123.5t-115.5 329.5zM354 453q0 -129 72 -207t192 -78q141 0 236.5 108t95.5 269q0 124 -73.5 201t-192.5 77 q-127 0 -220 -94.5t-108 -239.5q0 -7 -1 -18.5t-1 -17.5z" />
<glyph unicode="e" horiz-adv-x="1150" d="M115 428q0 122 45.5 232.5t123 189.5t184 125.5t224.5 46.5q209 0 330 -127t121 -348q0 -50 -15 -133h-784q6 -123 76.5 -195t185.5 -72q84 0 164.5 48t142.5 135l170 -113q-101 -129 -221.5 -189.5t-275.5 -60.5q-216 0 -343.5 124.5t-127.5 336.5zM360 580h549v28 q0 105 -66 171.5t-171 66.5q-112 0 -193.5 -70t-118.5 -196z" />
<glyph unicode="f" horiz-adv-x="557" d="M88 803l21 192h147l18 158q19 162 120 256t259 94q88 0 183 -33l-62 -180q-47 23 -96 23q-39 0 -76 -16t-59 -42q-36 -42 -45 -139l-13 -121h258l-18 -192h-260l-84 -803h-227l84 803h-150z" />
<glyph unicode="g" horiz-adv-x="1216" d="M74 -180l174 133q100 -178 313 -178q128 0 216 68t100 177l12 107q-66 -82 -146 -119t-190 -37q-195 0 -315.5 125.5t-120.5 329.5q0 123 42.5 234.5t114 191.5t171 127t208.5 47q188 0 279 -117q15 -15 31 -57l16 143h227l-98 -948q-23 -224 -174.5 -343.5 t-411.5 -119.5q-164 0 -272.5 57t-175.5 179zM350 459q0 -134 73.5 -214.5t194.5 -80.5q141 0 235.5 108t94.5 271q0 132 -73.5 213.5t-194.5 81.5q-131 0 -224 -99.5t-104 -249.5q-2 -10 -2 -30z" />
<glyph unicode="h" horiz-adv-x="1110" d="M115 0l155 1477h228l-64 -611q70 82 148 119t178 37q144 0 225.5 -77.5t81.5 -213.5q0 -53 -6 -108l-66 -623h-231l59 575q4 50 4 70q0 83 -45 129.5t-125 46.5q-51 0 -101.5 -24t-86.5 -66q-56 -67 -70 -207l-55 -524h-229z" />
<glyph unicode="i" horiz-adv-x="456" d="M117 0l106 995h230l-105 -995h-231zM221 1280q0 57 45.5 97t108.5 40q59 0 99 -39t40 -96t-46.5 -97t-109.5 -40q-57 0 -97 39.5t-40 95.5z" />
<glyph unicode="j" horiz-adv-x="462" d="M-209 -375l66 189q61 -23 98 -23q46 0 81.5 22t53.5 58q26 56 37 172l98 952h230l-105 -997q-11 -99 -27.5 -157t-48.5 -107q-44 -69 -117.5 -105.5t-166.5 -36.5q-96 0 -199 33zM225 1280q0 58 45.5 98.5t108.5 40.5q58 0 97.5 -39t39.5 -96t-45.5 -97t-110.5 -40 q-57 0 -96 38.5t-39 94.5z" />
<glyph unicode="k" horiz-adv-x="993" d="M127 0l154 1477h229l-156 -1477h-227zM414 530l415 465h285l-430 -469l377 -526h-291z" />
<glyph unicode="l" horiz-adv-x="456" d="M115 0l155 1477h228l-154 -1477h-229z" />
<glyph unicode="m" horiz-adv-x="1648" d="M115 0l104 995h227l-14 -147q125 170 313 170q196 0 261 -160q123 162 317 162q129 0 209 -70.5t80 -185.5q0 -58 -8 -129l-70 -635h-227l61 584q4 37 4 84q0 66 -39.5 105.5t-105.5 39.5q-95 0 -155.5 -66.5t-72.5 -183.5l-61 -563h-225l59 590q8 62 8 78 q0 66 -40 106.5t-105 40.5q-96 0 -159 -70.5t-75 -191.5l-57 -553h-229z" />
<glyph unicode="n" horiz-adv-x="1112" d="M115 0l104 995h227l-14 -153q127 184 336 184q139 0 220 -79t81 -212q0 -73 -4 -104l-66 -631h-231l61 573q7 54 7 82q0 78 -48.5 125t-128.5 47q-107 0 -175.5 -76t-82.5 -208l-57 -543h-229z" />
<glyph unicode="o" horiz-adv-x="1216" d="M117 436q0 20 4 60q17 151 99.5 271t212 187.5t282.5 67.5q217 0 352 -130t135 -337q0 -161 -79.5 -296t-217 -212.5t-301.5 -77.5q-215 0 -351 130t-136 337zM340 457q0 -126 80.5 -207.5t204.5 -81.5q148 0 251 107.5t103 261.5q0 127 -79.5 207.5t-205.5 80.5 q-135 0 -235 -93.5t-115 -235.5q0 -6 -2 -19.5t-2 -19.5z" />
<glyph unicode="p" horiz-adv-x="1220" d="M76 -385l143 1380h227l-16 -166q64 100 151.5 146.5t209.5 46.5q189 0 302 -123t113 -330q0 -166 -69.5 -303.5t-192 -217t-270.5 -79.5q-232 0 -316 187l-55 -539zM385 453q0 -132 72.5 -210.5t195.5 -78.5q136 0 231 109t95 264q0 132 -70.5 209t-189.5 77 q-134 0 -227 -93.5t-105 -240.5q-2 -14 -2 -36z" />
<glyph unicode="q" horiz-adv-x="1212" d="M117 426q0 163 71 300.5t194 216.5t269 79q107 0 180 -38.5t130 -125.5l14 137h227l-143 -1378l-230 -2l56 524q-70 -89 -153.5 -129.5t-196.5 -40.5q-191 0 -304.5 124t-113.5 333zM346 449q0 -128 72.5 -207.5t189.5 -79.5q140 0 234 109t94 272q0 127 -72.5 204.5 t-191.5 77.5q-126 0 -215.5 -91t-108.5 -236q-2 -14 -2 -49z" />
<glyph unicode="r" horiz-adv-x="665" d="M113 0l106 995h227l-18 -180q46 101 124 154t181 53q41 0 98 -14l-71 -234q-53 19 -98 19q-116 0 -191 -84q-37 -40 -51.5 -79t-22.5 -114l-57 -516h-227z" />
<glyph unicode="s" horiz-adv-x="819" d="M31 182l162 119q65 -149 204 -149q69 0 117.5 40.5t48.5 100.5q0 41 -28 69q-19 18 -42.5 30.5t-89.5 39.5q-127 54 -170 88q-81 63 -81 172q0 138 108.5 234t263.5 96q110 0 190.5 -44.5t123.5 -129.5l-158 -119q-58 113 -156 113q-57 0 -99 -35.5t-42 -81.5 q0 -63 88 -96l82 -31q15 -6 43.5 -18.5t38.5 -16.5q162 -74 162 -231q0 -154 -119.5 -259.5t-296.5 -105.5q-128 0 -213.5 52.5t-136.5 162.5z" />
<glyph unicode="t" horiz-adv-x="616" d="M82 803l20 192h146l26 262h228l-27 -262h262l-20 -192h-260l-47 -443q-9 -88 -9 -90q0 -51 31 -77.5t88 -26.5q56 0 111 24l24 -184q-123 -33 -217 -33q-121 0 -195.5 66t-74.5 172q0 45 8 121l49 471h-143z" />
<glyph unicode="u" horiz-adv-x="1120" d="M158 319q0 60 4 91l61 585h230l-60 -563q-4 -50 -4 -70q0 -83 52 -129.5t143 -46.5q109 0 174 62q32 31 46.5 70t22.5 114l62 563h227l-61 -585q-12 -101 -37 -166q-51 -123 -175.5 -198t-279.5 -75q-183 0 -294 95.5t-111 252.5z" />
<glyph unicode="v" horiz-adv-x="935" d="M59 995h244l164 -549q24 -87 27 -188q26 91 30 102q8 21 39 86l279 549h241l-532 -995h-168z" />
<glyph unicode="w" horiz-adv-x="1517" d="M76 995h243l134 -532q18 -73 18 -182q13 54 24.5 86t41.5 98l239 530h172l129 -530q23 -99 25 -184q25 113 57 182l246 532h244l-486 -995h-170l-131 520q-26 110 -31 207q-12 -62 -25.5 -102t-43.5 -105l-242 -520h-168z" />
<glyph unicode="x" horiz-adv-x="978" d="M-47 0l459 524l-314 471h283l133 -223q22 -35 30 -60t11 -65q20 60 72 125l180 223h283l-414 -471l350 -524h-283l-161 262q-38 61 -52 144q-30 -80 -81 -144l-216 -262h-280z" />
<glyph unicode="y" horiz-adv-x="913" d="M-47 -383l67 199q50 -17 93 -17q93 0 145 76q28 42 86 154l-291 966h246l160 -569q24 -88 24 -180q22 91 66 180l278 569h248l-553 -1071q-1 -1 -10 -17.5t-16 -27.5q-14 -23 -33.5 -57t-27 -46t-19.5 -30.5t-20.5 -29.5t-20.5 -23q-47 -47 -118.5 -74t-150.5 -27 q-82 0 -153 25z" />
<glyph unicode="z" horiz-adv-x="960" d="M18 0l11 119l596 618q52 55 135 107q-132 -41 -168 -41h-426l20 192h856l-12 -114l-590 -615q-32 -36 -57 -53q-30 -27 -82 -61q121 41 182 41h455l-20 -193h-900z" />
<glyph unicode="{" horiz-adv-x="675" d="M139 737q59 5 100 45t48 103l82 667q9 74 59.5 116t134.5 42h187l-15 -108h-24q-70 0 -96.5 -24.5t-34.5 -92.5l-72 -578q-6 -51 -37.5 -92t-81.5 -63q-40 -13 -55 -15q63 -6 101.5 -55t31.5 -115l-72 -577q-8 -68 13.5 -92.5t91.5 -24.5h22l-12 -109h-186q-83 0 -123 42 t-31 116l82 668q7 63 -25.5 104t-87.5 43z" />
<glyph unicode="|" horiz-adv-x="583" d="M268 0v1475h185v-1475h-185z" />
<glyph unicode="}" horiz-adv-x="661" d="M59 -236l15 109h22q70 0 97.5 24.5t35.5 92.5l72 577q6 51 38 92.5t81 63.5q24 11 55 14q-27 3 -51 15q-43 20 -65.5 62t-16.5 93l72 578q8 68 -13.5 92.5t-91.5 24.5h-24l14 108h186q83 0 123 -42t31 -116l-82 -667q-7 -64 25 -105t88 -43q-60 -5 -101.5 -44.5 t-48.5 -102.5l-82 -668q-9 -74 -59 -116t-133 -42h-187z" />
<glyph unicode="~" horiz-adv-x="714" d="M174 1575l19 170q88 29 159 29q22 0 113 -17l92 -18q103 -21 152 -21q91 0 182 47l-19 -174q-86 -30 -174 -30q-67 0 -170 20q-24 4 -45.5 9t-35 8.5t-15.5 3.5q-39 8 -88 8q-84 0 -170 -35z" />
<glyph unicode="&#xa1;" horiz-adv-x="520" d="M147 -2l117 1096h217l-116 -1096h-218zM256 1354q0 61 45.5 104t110.5 43q57 0 97 -41.5t40 -101.5t-46 -104t-110 -44q-56 0 -96.5 43t-40.5 101z" />
<glyph unicode="&#xa2;" horiz-adv-x="933" d="M117 430q0 152 67 280.5t185 207.5t262 88l16 157h146l-19 -151q54 0 121 -13q58 -18 113 -47l-95 -192q-55 31 -100 43t-104 12q-151 0 -254 -104t-103 -256q0 -127 78.5 -205t206.5 -78q59 0 109 15.5t112 52.5l62 -179q-80 -45 -146 -63q-8 -2 -29 -7.5t-38 -8.5 t-41 -5l-17 -174h-147l20 174q-183 10 -294 134.5t-111 318.5z" />
<glyph unicode="&#xa3;" horiz-adv-x="1169" d="M66 0l22 213l203 315h-166l18 189h267l243 368q96 143 160 212t148 118q73 42 140.5 62.5t158.5 27.5l-23 -213q-124 -13 -205 -71.5t-180 -204.5l-203 -299h307l-20 -189h-401l-201 -315h786l-22 -213h-1032z" />
<glyph unicode="&#xa4;" horiz-adv-x="1091" d="M213 434l123 123q-28 38 -43 86q-23 70 -12 145t55 136l-121 116q25 37 68 76l127 -123q84 62 184 62q102 0 184 -60l123 123q3 -3 10.5 -8t10.5 -8q29 -26 51 -62l-121 -114q60 -85 59 -187t-61 -186l123 -123l-17 -16l-16 -19q-13 -13 -41 -37l-121 123 q-83 -61 -184 -61q-103 0 -184 63l-127 -123l-19 17l-16 18l-19 19zM383 737q0 -85 61 -149q62 -62 150 -62t149 62t61 150t-61 149t-149 61t-149.5 -61.5t-61.5 -149.5z" />
<glyph unicode="&#xa5;" horiz-adv-x="1300" d="M190 430l21 182h387l4 41l-8 33h-373l21 178h272l-285 613h273l207 -498q28 -69 28 -164q24 100 64 164l311 498h268l-397 -613h277l-19 -178h-375l-28 -33l-7 -43h402l-21 -178h-395l-49 -432h-233l43 430h-388z" />
<glyph unicode="&#xa7;" horiz-adv-x="1218" d="M131 -82q0 29 2 47l229 4v-14q0 -75 63 -122.5t161 -47.5q82 0 135 38t53 97q0 38 -14 70q-14 28 -31 44.5t-57 39.5l-342 196q-195 114 -195 293q0 109 65.5 201.5t186.5 155.5q-80 92 -80 204q0 161 138.5 270t342.5 109q195 0 305.5 -100.5t110.5 -280.5l-223 -6 q-7 88 -68 137.5t-159 49.5q-83 0 -140 -42t-57 -102q0 -45 34 -88.5t95 -77.5l322 -176q101 -56 147.5 -125.5t46.5 -167.5q0 -121 -59.5 -213t-184.5 -164q37 -40 52.5 -77.5t15.5 -92.5q0 -168 -136 -279.5t-341 -111.5q-186 0 -302 92t-116 240zM360 604q0 -44 30 -87 t81 -71l332 -180q87 41 132.5 97t45.5 120q0 89 -88 138l-342 188q-191 -93 -191 -205z" />
<glyph unicode="&#xa8;" horiz-adv-x="626" d="M84 1225q0 58 43 99.5t102 41.5q54 0 91.5 -40t37.5 -97q0 -58 -42.5 -98.5t-102.5 -40.5q-54 0 -91.5 39.5t-37.5 95.5zM524 1227q0 57 44 98t104 41q53 0 91 -40t38 -97q0 -58 -43 -98.5t-105 -40.5q-54 0 -91.5 40t-37.5 97z" />
<glyph unicode="&#xa9;" horiz-adv-x="1974" d="M236 739q0 152 58 292t165 247q110 110 253 167.5t287.5 57.5t287.5 -57.5t253 -167.5q107 -107 165 -247t58 -292q0 -155 -60.5 -296.5t-163 -244t-244 -163t-296.5 -60.5q-156 0 -297 60t-243 162.5t-162.5 244t-60.5 297.5zM346 739q0 -132 50.5 -254.5t142.5 -216.5 q125 -127 292.5 -172t335.5 0t293 172q126 128 170.5 299t0 342t-170.5 299q-125 127 -293 172t-335.5 0t-292.5 -172q-93 -94 -143 -215.5t-50 -253.5zM541 632.5q-3 87.5 24 186.5q11 37 37 94q58 118 159 196t226 103q246 49 412 -104l-80 -96q-83 79 -203 88t-239 -62 q-83 -51 -135 -133t-62 -180q-13 -116 36.5 -206.5t145 -131t211.5 -16.5q40 10 70 20q59 24 106 62l56 -97q-138 -108 -324 -114q-92 -3 -172 25t-137 80t-92.5 125t-38.5 160.5z" />
<glyph unicode="&#xaa;" horiz-adv-x="1069" d="M188 549l19 139h735l-12 -139h-742zM262 1135q22 151 125 254q78 78 177 101t179.5 -9.5t114.5 -106.5l8 -18l6 -15l17 134h151l-84 -687h-153l16 142l-8 -17l-10 -16q-60 -95 -189 -119q-107 -21 -194 19.5t-130 131t-26 206.5zM416 1087q8 -106 91.5 -157t186.5 -6 q61 25 101 77q62 83 55 179q-8 107 -91 158.5t-184 9.5q-53 -22 -91.5 -67t-55.5 -105q-7 -22 -10 -41q-2 -16 -2 -48z" />
<glyph unicode="&#xab;" horiz-adv-x="1288" d="M129 500l600 487l115 -137l-443 -346l367 -359l-141 -141zM586 500l604 487l115 -137l-443 -346l367 -359l-142 -141z" />
<glyph unicode="&#xac;" horiz-adv-x="1370" d="M203 737v185h1032v-480h-148v295h-884z" />
<glyph unicode="&#xad;" horiz-adv-x="649" d="M117 387l22 221h498l-25 -221h-495z" />
<glyph unicode="&#xae;" horiz-adv-x="1974" d="M236 739q0 152 58 292t165 247q110 110 253 167.5t287.5 57.5t287.5 -57.5t253 -167.5q107 -107 165 -247t58 -292q0 -155 -60.5 -296.5t-163 -244t-244 -163t-296.5 -60.5q-156 0 -297 60t-243 162.5t-162.5 244t-60.5 297.5zM346 739q0 -132 50.5 -254.5t142.5 -216.5 q125 -127 292.5 -172t335.5 0t293 172q126 128 170.5 299t0 342t-170.5 299q-125 127 -293 172t-335.5 0t-292.5 -172q-93 -94 -143 -215.5t-50 -253.5zM698 276l115 943h236q166 0 236.5 -88t23.5 -236q-25 -78 -83 -126t-143 -62q-10 -2 -30 -2l237 -429h-160l-241 457 l-58 -457h-133zM893 780h78q165 0 207 127q30 91 -13.5 146t-142.5 55h-88z" />
<glyph unicode="&#xaf;" horiz-adv-x="710" d="M127 1137l14 151h699l-17 -151h-696z" />
<glyph unicode="&#xb1;" horiz-adv-x="1216" d="M90 39v139h946v-139h-946zM90 539v139h404v250h139v-250h403v-139h-403v-250h-139v250h-404z" />
<glyph unicode="&#xb4;" horiz-adv-x="528" d="M250 1182l272 336l166 -119l-313 -307z" />
<glyph unicode="&#xb5;" horiz-adv-x="1275" d="M150 -285q0 5 0.5 19.5t1.5 43t2 56.5q4 132 4 182q0 117 -2 207q-4 180 -4 195v502h188v-607q0 -143 29 -194q27 -49 102 -49q117 -3 195 163q77 168 77 420v267h189v-672q0 -92 18 -135q18 -40 60 -43q41 0 65 43q23 44 23 125v28h43q0 -10 2 -18v-27q0 -114 -49 -178 q-46 -61 -136 -61q-98 -3 -155 88q-50 81 -53 264q-47 -182 -125 -266q-77 -83 -199 -86q-91 0 -150 53q-56 51 -81 158q0 -4 -1 -23.5t-1 -34.5q-3 -129 65 -289q66 -160 66 -188q0 -41 -23 -64q-22 -22 -63 -22q-47 -3 -68 35q-17 28 -20 108z" />
<glyph unicode="&#xb6;" horiz-adv-x="1259" d="M203 1065q17 174 147 292t309 118h646l-15 -119h-647q-127 0 -218.5 -85t-102.5 -210q-9 -117 66 -202t183 -85h138l59 488h127l-156 -1262h-125l80 655h-137q-155 0 -262 121.5t-92 288.5zM872 0l154 1262h127l-156 -1262h-125z" />
<glyph unicode="&#xb7;" d="M520 496q0 62 47 106.5t113 44.5q57 0 98 -44t41 -105q0 -62 -47 -106t-113 -44q-58 0 -98.5 43t-40.5 105z" />
<glyph unicode="&#xb8;" horiz-adv-x="393" d="M23 -354l192 284l158 -59l-217 -274z" />
<glyph unicode="&#xba;" horiz-adv-x="1067" d="M193 549l18 139h733l-14 -139h-737zM262 1135q15 112 90 213q97 123 248 151q120 22 218.5 -21t148 -135t34.5 -208q-9 -76 -49 -148q-53 -99 -151 -160q-63 -39 -139 -55q-119 -22 -217 20.5t-147.5 134.5t-35.5 208zM414 1094q5 -108 91 -160.5t191 -7.5q63 29 103 84 t49 125q2 14 2 45q-5 106 -91 158t-190 8q-110 -49 -145 -168q-4 -13 -8 -43q-2 -14 -2 -41z" />
<glyph unicode="&#xbb;" horiz-adv-x="1288" d="M90 147l447 353l-371 356l141 137l500 -499l-606 -488zM551 147l442 353l-366 356l139 137l500 -499l-607 -488z" />
<glyph unicode="&#xbf;" horiz-adv-x="1058" d="M98 391q0 149 79 266t224 185l119 55q54 25 64 47q6 13 8 21q3 9 4.5 15.5t2 11t1.5 7.5l8 93h223l-14 -142q-7 -82 -35 -121q-15 -15 -34 -26q-22 -13 -35 -17q-27 -13 -39 -18q-145 -63 -221 -111q-134 -87 -134 -256q0 -109 68 -176t178 -67q116 0 194.5 66t106.5 186 l215 -43q-36 -99 -71 -152q-79 -120 -197.5 -183t-263.5 -63q-202 0 -326.5 116.5t-124.5 305.5zM602 1354q0 61 45.5 104t110.5 43q56 0 96.5 -41.5t40.5 -101.5q0 -63 -46.5 -107.5t-109.5 -44.5q-58 0 -97.5 43.5t-39.5 104.5z" />
<glyph unicode="&#xc0;" horiz-adv-x="1292" d="M-51 0l741 1477h221l432 -1477h-249l-103 367h-612l-180 -367h-250zM469 555h471l-139 518q-21 79 -21 150v45q-20 -103 -63 -195zM575 1946l193 116l203 -331l-150 -93z" />
<glyph unicode="&#xc1;" horiz-adv-x="1292" d="M-51 0l741 1477h221l432 -1477h-249l-103 367h-612l-180 -367h-250zM469 555h471l-139 518q-21 79 -21 150v45q-20 -103 -63 -195zM727 1735l272 336l166 -119l-313 -307z" />
<glyph unicode="&#xc2;" horiz-adv-x="1292" d="M-51 0l741 1477h221l432 -1477h-249l-103 367h-612l-180 -367h-250zM469 555h471l-139 518q-21 79 -21 150v45q-20 -103 -63 -195zM494 1784l391 241l338 -243l-101 -142l-262 168l-297 -159z" />
<glyph unicode="&#xc3;" horiz-adv-x="1292" d="M-51 0l741 1477h221l432 -1477h-249l-103 367h-612l-180 -367h-250zM469 555h471l-139 518q-21 79 -21 150v45q-20 -103 -63 -195zM526 1661l15 166q92 28 149 28q49 0 101 -14l83 -22q62 -17 136 -17q89 0 166 43l-17 -168q-80 -30 -160 -30q-71 0 -153 20l-86 21 q-36 8 -80 8q-80 0 -154 -35z" />
<glyph unicode="&#xc4;" horiz-adv-x="1292" d="M-51 0l741 1477h221l432 -1477h-249l-103 367h-612l-180 -367h-250zM440 1604q0 54 43.5 93.5t104.5 39.5q54 0 91.5 -38.5t37.5 -92.5q0 -55 -42 -93t-102 -38q-56 0 -94.5 37.5t-38.5 91.5zM469 555h471l-139 518q-21 79 -21 150v45q-20 -103 -63 -195zM913 1602 q0 55 44 95t104 40q54 0 92.5 -38.5t38.5 -92.5q0 -55 -43 -93t-105 -38q-53 0 -92 37.5t-39 89.5z" />
<glyph unicode="&#xc5;" horiz-adv-x="1290" d="M-51 0l735 1438h41q-67 45 -92 80.5t-25 87.5q0 78 68 142t153 64q80 0 136.5 -58.5t56.5 -141.5q0 -62 -32 -100.5t-113 -73.5h34l430 -1438h-243l-107 371h-614l-187 -371h-241zM465 557h475l-141 516q-23 84 -23 150v45q-8 -58 -28 -119q-14 -38 -31 -76zM721 1614 q0 -38 26.5 -65t63.5 -27q41 0 69.5 27t28.5 67t-25 68t-61 28q-41 0 -71.5 -29t-30.5 -69z" />
<glyph unicode="&#xc6;" horiz-adv-x="1810" d="M-51 0l1040 1477h887l-23 -205h-553l-40 -379l477 2l-23 -201h-475l-49 -487h575l-22 -207h-813l43 383h-492l-270 -383h-262zM604 573h385l74 680z" />
<glyph unicode="&#xc7;" horiz-adv-x="1349" d="M141 645q0 173 67.5 331.5t181 273.5t270.5 183t329 68q137 0 264 -45q51 -18 93 -42t106 -73l-141 -182q-42 33 -64 49q-113 72 -266 72q-161 0 -299 -81.5t-218.5 -221.5t-80.5 -305q0 -214 134.5 -350t346.5 -136q110 0 217 43q57 23 140 80l100 -180 q-97 -64 -172 -96q-162 -64 -332 -64q-198 0 -352 85t-239 239t-85 352zM514 -344l193 287l157 -60l-217 -274z" />
<glyph unicode="&#xc8;" horiz-adv-x="993" d="M115 0l155 1477h789l-21 -197h-553l-41 -387h478l-23 -195h-473l-53 -501h575l-20 -197h-813zM442 1946l193 116l203 -331l-150 -93z" />
<glyph unicode="&#xc9;" horiz-adv-x="993" d="M115 0l155 1477h789l-21 -197h-553l-41 -387h478l-23 -195h-473l-53 -501h575l-20 -197h-813zM571 1735l273 336l166 -119l-314 -307z" />
<glyph unicode="&#xca;" horiz-adv-x="993" d="M115 0l155 1477h789l-21 -197h-553l-41 -387h478l-23 -195h-473l-53 -501h575l-20 -197h-813zM340 1784l391 241l338 -243l-100 -142l-262 168l-297 -159z" />
<glyph unicode="&#xcb;" horiz-adv-x="993" d="M115 0l155 1477h789l-21 -197h-553l-41 -387h478l-23 -195h-473l-53 -501h575l-20 -197h-813zM346 1778q0 58 43.5 99.5t102.5 41.5q54 0 91.5 -40t37.5 -97q0 -58 -43 -99t-103 -41q-54 0 -91.5 40t-37.5 96zM786 1780q0 57 44 98t104 41q53 0 91 -40t38 -97 q0 -58 -43 -99t-105 -41q-54 0 -91.5 40.5t-37.5 97.5z" />
<glyph unicode="&#xcc;" horiz-adv-x="464" d="M115 0l155 1477h238l-158 -1477h-235zM154 1946l192 116l203 -331l-150 -93z" />
<glyph unicode="&#xcd;" horiz-adv-x="464" d="M115 0l155 1477h238l-158 -1477h-235zM313 1735l273 336l166 -119l-314 -307z" />
<glyph unicode="&#xce;" horiz-adv-x="464" d="M76 1784l391 241l338 -243l-100 -142l-263 168l-297 -159zM115 0l155 1477h238l-158 -1477h-235z" />
<glyph unicode="&#xcf;" horiz-adv-x="464" d="M80 1778q0 58 43 99.5t102 41.5q54 0 91.5 -40t37.5 -97q0 -58 -42.5 -99t-102.5 -41q-54 0 -91.5 40t-37.5 96zM115 0l155 1477h238l-158 -1477h-235zM520 1780q0 57 44 98t104 41q53 0 91 -40t38 -97q0 -58 -43 -99t-105 -41q-54 0 -91.5 40.5t-37.5 97.5z" />
<glyph unicode="&#xd1;" horiz-adv-x="1525" d="M115 0l155 1477h199l688 -992q49 -70 82 -192q-10 120 -10 194q0 7 1 18t1 15l100 957h236l-154 -1477h-194l-699 999q-38 52 -82 183q17 -170 17 -203q0 -6 -2 -12l-103 -967h-235zM659 1661l15 166q92 28 149 28q49 0 101 -14l84 -22q62 -17 135 -17q89 0 166 43 l-17 -168q-80 -30 -159 -30q-71 0 -154 20l-86 21q-36 8 -80 8q-80 0 -154 -35z" />
<glyph unicode="&#xd2;" horiz-adv-x="1681" d="M141 657q0 26 4 80q23 216 143 392.5t307.5 277t403.5 100.5q199 0 358 -87.5t248 -244t89 -354.5q0 -173 -68 -331t-183 -272.5t-273.5 -182.5t-331.5 -68q-203 0 -361.5 87t-247 244t-88.5 359zM381 678q0 -213 135 -351.5t342 -138.5q159 0 297 83t219.5 224t81.5 304 q0 209 -136.5 348t-342.5 139q-225 0 -397 -159t-197 -390q-2 -20 -2 -59zM797 1946l192 116l203 -331l-150 -93z" />
<glyph unicode="&#xd3;" horiz-adv-x="1681" d="M141 657q0 26 4 80q23 216 143 392.5t307.5 277t403.5 100.5q199 0 358 -87.5t248 -244t89 -354.5q0 -173 -68 -331t-183 -272.5t-273.5 -182.5t-331.5 -68q-203 0 -361.5 87t-247 244t-88.5 359zM381 678q0 -213 135 -351.5t342 -138.5q159 0 297 83t219.5 224t81.5 304 q0 209 -136.5 348t-342.5 139q-225 0 -397 -159t-197 -390q-2 -20 -2 -59zM924 1735l272 336l166 -119l-313 -307z" />
<glyph unicode="&#xd4;" horiz-adv-x="1681" d="M141 657q0 26 4 80q23 216 143 392.5t307.5 277t403.5 100.5q199 0 358 -87.5t248 -244t89 -354.5q0 -173 -68 -331t-183 -272.5t-273.5 -182.5t-331.5 -68q-203 0 -361.5 87t-247 244t-88.5 359zM381 678q0 -213 135 -351.5t342 -138.5q159 0 297 83t219.5 224t81.5 304 q0 209 -136.5 348t-342.5 139q-225 0 -397 -159t-197 -390q-2 -20 -2 -59zM702 1784l392 241l338 -243l-101 -142l-262 168l-297 -159z" />
<glyph unicode="&#xd5;" horiz-adv-x="1681" d="M141 657q0 26 4 80q23 216 143 392.5t307.5 277t403.5 100.5q199 0 358 -87.5t248 -244t89 -354.5q0 -173 -68 -331t-183 -272.5t-273.5 -182.5t-331.5 -68q-203 0 -361.5 87t-247 244t-88.5 359zM381 678q0 -213 135 -351.5t342 -138.5q159 0 297 83t219.5 224t81.5 304 q0 209 -136.5 348t-342.5 139q-225 0 -397 -159t-197 -390q-2 -20 -2 -59zM739 1661l15 166q92 28 149 28q49 0 101 -14l83 -22q62 -17 136 -17q89 0 166 43l-17 -168q-80 -30 -160 -30q-70 0 -153 20l-86 21q-36 8 -80 8q-80 0 -154 -35z" />
<glyph unicode="&#xd6;" horiz-adv-x="1681" d="M141 657q0 26 4 80q23 216 143 392.5t307.5 277t403.5 100.5q199 0 358 -87.5t248 -244t89 -354.5q0 -173 -68 -331t-183 -272.5t-273.5 -182.5t-331.5 -68q-203 0 -361.5 87t-247 244t-88.5 359zM381 678q0 -213 135 -351.5t342 -138.5q159 0 297 83t219.5 224t81.5 304 q0 209 -136.5 348t-342.5 139q-225 0 -397 -159t-197 -390q-2 -20 -2 -59zM389 1554q0 57 44.5 97.5t107.5 40.5q54 0 93.5 -39.5t39.5 -96.5q0 -55 -45 -94t-107 -39q-56 0 -94.5 38t-38.5 93zM1329 1554q0 57 44 97.5t106 40.5q60 0 101.5 -39.5t41.5 -96.5 q0 -55 -45.5 -94t-110.5 -39q-57 0 -97 38t-40 93z" />
<glyph unicode="&#xd7;" d="M244 473l303 275l-244 274l150 137l245 -274l303 274l142 -158l-303 -274l245 -272l-151 -138l-246 275l-303 -275z" />
<glyph unicode="&#xd8;" horiz-adv-x="1693" d="M74 29l211 190q-38 53 -68 107q-76 139 -76 327q0 173 68.5 331.5t183.5 274t274 184t332 68.5q147 0 283 -53q60 -24 106 -55t115 -96l211 188l62 -72l-209 -184q53 -85 59 -98q68 -139 68 -320q0 -173 -68.5 -331t-183.5 -273t-274 -183.5t-332 -68.5q-148 0 -281 53 q-53 22 -95.5 50t-107.5 86l-215 -193zM387 672q0 -122 45 -217q5 -10 37 -68l852 758q-50 42 -79 61.5t-64 32.5q-98 37 -199 37q-159 0 -295.5 -81.5t-216.5 -221t-80 -301.5zM535 315q83 -72 131 -92q85 -35 192 -35q159 0 297 83t219.5 224t81.5 304q0 80 -15.5 138.5 t-56.5 131.5z" />
<glyph unicode="&#xd9;" horiz-adv-x="1335" d="M168 414q0 54 12 164l92 899h238l-94 -877q-8 -76 -8 -147q0 -126 75 -196.5t207 -70.5q77 0 144.5 26t113.5 73q49 49 69.5 110.5t35.5 204.5l92 877h235l-94 -899q-13 -137 -41 -228q-57 -177 -212.5 -280t-364.5 -103q-229 0 -364.5 121.5t-135.5 325.5zM618 1946 l193 116l203 -331l-150 -93z" />
<glyph unicode="&#xda;" horiz-adv-x="1335" d="M168 414q0 54 12 164l92 899h238l-94 -877q-8 -76 -8 -147q0 -126 75 -196.5t207 -70.5q77 0 144.5 26t113.5 73q49 49 69.5 110.5t35.5 204.5l92 877h235l-94 -899q-13 -137 -41 -228q-57 -177 -212.5 -280t-364.5 -103q-229 0 -364.5 121.5t-135.5 325.5zM750 1735 l272 336l166 -119l-314 -307z" />
<glyph unicode="&#xdb;" horiz-adv-x="1335" d="M168 414q0 54 12 164l92 899h238l-94 -877q-8 -76 -8 -147q0 -126 75 -196.5t207 -70.5q77 0 144.5 26t113.5 73q49 49 69.5 110.5t35.5 204.5l92 877h235l-94 -899q-13 -137 -41 -228q-57 -177 -212.5 -280t-364.5 -103q-229 0 -364.5 121.5t-135.5 325.5zM508 1784 l391 241l338 -243l-100 -142l-263 168l-296 -159z" />
<glyph unicode="&#xdc;" horiz-adv-x="1335" d="M168 414q0 54 12 164l92 899h238l-94 -877q-8 -76 -8 -147q0 -126 75 -196.5t207 -70.5q77 0 144.5 26t113.5 73q49 49 69.5 110.5t35.5 204.5l92 877h235l-94 -899q-13 -137 -41 -228q-57 -177 -212.5 -280t-364.5 -103q-229 0 -364.5 121.5t-135.5 325.5zM496 1595 q0 57 42.5 96.5t102.5 39.5q55 0 93 -37.5t38 -91.5q0 -55 -42.5 -93.5t-104.5 -38.5q-54 0 -91.5 37t-37.5 88zM915 1599q0 54 43 93t103 39q54 0 91.5 -37.5t37.5 -91.5q0 -55 -41.5 -93.5t-101.5 -38.5q-54 0 -93 37.5t-39 91.5z" />
<glyph unicode="&#xdf;" horiz-adv-x="1153" d="M117 0l110 1061q22 204 152.5 323t331.5 119q171 0 279 -99.5t108 -258.5q0 -120 -59.5 -210.5t-166.5 -133.5q125 -23 197 -112.5t72 -221.5q0 -211 -146.5 -354.5t-361.5 -143.5q-110 0 -199 47l66 203q67 -43 135 -43q112 0 190 84t78 203q0 100 -65 157.5t-179 57.5 h-122l20 203h70q110 0 180 66.5t70 172.5q0 82 -51.5 133.5t-133.5 51.5q-99 0 -162 -63.5t-75 -178.5l-111 -1063h-227z" />
<glyph unicode="&#xe0;" horiz-adv-x="1218" d="M117 434q0 157 72.5 292.5t195.5 215.5t264 80q171 0 275 -113q26 -29 41 -61l16 147h227l-104 -995h-227l14 137q-131 -168 -346 -168q-191 0 -309.5 128t-118.5 337zM348 457q0 -132 72.5 -212.5t191.5 -80.5q137 0 234.5 110t97.5 265q0 128 -74 207t-194 79 q-131 0 -229.5 -100t-98.5 -242v-26zM508 1393l192 116l203 -331l-149 -93z" />
<glyph unicode="&#xe1;" horiz-adv-x="1218" d="M117 434q0 157 72.5 292.5t195.5 215.5t264 80q171 0 275 -113q26 -29 41 -61l16 147h227l-104 -995h-227l14 137q-131 -168 -346 -168q-191 0 -309.5 128t-118.5 337zM348 457q0 -132 72.5 -212.5t191.5 -80.5q137 0 234.5 110t97.5 265q0 128 -74 207t-194 79 q-131 0 -229.5 -100t-98.5 -242v-26zM633 1182l272 336l166 -119l-313 -307z" />
<glyph unicode="&#xe2;" horiz-adv-x="1218" d="M117 434q0 157 72.5 292.5t195.5 215.5t264 80q171 0 275 -113q26 -29 41 -61l16 147h227l-104 -995h-227l14 137q-131 -168 -346 -168q-191 0 -309.5 128t-118.5 337zM348 457q0 -132 72.5 -212.5t191.5 -80.5q137 0 234.5 110t97.5 265q0 128 -74 207t-194 79 q-131 0 -229.5 -100t-98.5 -242v-26zM393 1231l391 242l338 -244l-100 -142l-262 168l-297 -159z" />
<glyph unicode="&#xe3;" horiz-adv-x="1218" d="M117 434q0 157 72.5 292.5t195.5 215.5t264 80q171 0 275 -113q26 -29 41 -61l16 147h227l-104 -995h-227l14 137q-131 -168 -346 -168q-191 0 -309.5 128t-118.5 337zM348 457q0 -132 72.5 -212.5t191.5 -80.5q137 0 234.5 110t97.5 265q0 128 -74 207t-194 79 q-131 0 -229.5 -100t-98.5 -242v-26zM428 1108l14 166q95 29 150 29q44 0 100 -15l84 -22q62 -17 135 -17q89 0 166 43l-16 -168q-80 -30 -160 -30q-71 0 -153 20l-86 21q-36 8 -80 8q-80 0 -154 -35z" />
<glyph unicode="&#xe4;" horiz-adv-x="1218" d="M117 434q0 157 72.5 292.5t195.5 215.5t264 80q171 0 275 -113q26 -29 41 -61l16 147h227l-104 -995h-227l14 137q-131 -168 -346 -168q-191 0 -309.5 128t-118.5 337zM348 457q0 -132 72.5 -212.5t191.5 -80.5q137 0 234.5 110t97.5 265q0 128 -74 207t-194 79 q-131 0 -229.5 -100t-98.5 -242v-26zM428 1278q0 58 43 99.5t102 41.5q54 0 91.5 -40t37.5 -97q0 -58 -42.5 -98.5t-102.5 -40.5q-54 0 -91.5 39.5t-37.5 95.5zM868 1280q0 57 44 98t104 41q53 0 91 -40t38 -97q0 -58 -43 -98.5t-105 -40.5q-54 0 -91.5 40t-37.5 97z" />
<glyph unicode="&#xe5;" horiz-adv-x="1218" d="M117 434q0 159 72 296.5t195.5 218.5t266.5 81q82 0 155 -29t118 -81q23 -26 39 -64l14 137h229l-104 -993h-228l15 135q-22 -32 -45 -55q-119 -113 -301 -113q-191 0 -308.5 129t-117.5 338zM348 455q0 -132 72.5 -212.5t191.5 -80.5q138 0 236 112t98 271 q0 127 -74.5 206.5t-193.5 79.5q-133 0 -231.5 -100t-98.5 -246v-30zM537 1276q0 83 64 142t155 59q79 0 135.5 -57.5t56.5 -137.5q0 -83 -64 -141t-155 -58q-79 0 -135.5 56.5t-56.5 136.5zM649 1278q0 -38 26 -66t60 -28q42 0 72.5 28.5t30.5 69.5q0 38 -25.5 65t-60.5 27 q-43 0 -73 -28t-30 -68z" />
<glyph unicode="&#xe6;" horiz-adv-x="1828" d="M100 279q0 164 137.5 272t344.5 108q134 0 219 -49q15 -7 43 -30v20q0 116 -73 183t-198 67q-124 0 -258 -55l-53 157q66 28 74 31q127 43 258 43q164 0 263 -63t118 -179q43 109 149 172.5t248 63.5q207 0 329 -126.5t122 -342.5q0 -50 -19 -148h-776q7 -119 73.5 -182 t182.5 -63q192 0 297 178l191 -78q-8 -12 -24 -35.5t-21.5 -31.5t-16.5 -21.5t-24 -26.5q-167 -176 -426 -176q-209 0 -320 123q-23 29 -45 74q-60 -94 -172 -146.5t-250 -52.5q-167 0 -270 86.5t-103 227.5zM309 299q0 -72 57 -114t154 -42q123 0 210 70t87 170 q0 57 -59 88t-164 31q-126 0 -205.5 -56t-79.5 -147zM1047 571h546q2 18 2 37q0 110 -64.5 175t-174.5 65q-123 0 -205 -74t-104 -203z" />
<glyph unicode="&#xe7;" horiz-adv-x="935" d="M117 432q0 162 80 298t218.5 214t303.5 78q84 0 148 -15.5t141 -54.5l-95 -192q-106 57 -204 57q-149 0 -253 -105.5t-104 -256.5q0 -127 78.5 -205t206.5 -78q59 0 109 15.5t112 52.5l62 -179q-66 -34 -72 -36q-125 -56 -264 -56q-209 0 -338 128t-129 335zM319 -338 l193 285l156 -60l-215 -274z" />
<glyph unicode="&#xe8;" horiz-adv-x="1150" d="M115 428q0 122 45.5 232.5t123 189.5t184 125.5t224.5 46.5q209 0 330 -127t121 -348q0 -50 -15 -133h-784q6 -123 76.5 -195t185.5 -72q84 0 164.5 48t142.5 135l170 -113q-101 -129 -221.5 -189.5t-275.5 -60.5q-216 0 -343.5 124.5t-127.5 336.5zM360 580h549v28 q0 105 -66 171.5t-171 66.5q-112 0 -193.5 -70t-118.5 -196zM444 1393l193 116l203 -331l-150 -93z" />
<glyph unicode="&#xe9;" horiz-adv-x="1150" d="M115 428q0 122 45.5 232.5t123 189.5t184 125.5t224.5 46.5q209 0 330 -127t121 -348q0 -50 -15 -133h-784q6 -123 76.5 -195t185.5 -72q84 0 164.5 48t142.5 135l170 -113q-101 -129 -221.5 -189.5t-275.5 -60.5q-216 0 -343.5 124.5t-127.5 336.5zM360 580h549v28 q0 105 -66 171.5t-171 66.5q-112 0 -193.5 -70t-118.5 -196zM580 1182l272 336l166 -119l-313 -307z" />
<glyph unicode="&#xea;" horiz-adv-x="1150" d="M115 428q0 122 45.5 232.5t123 189.5t184 125.5t224.5 46.5q209 0 330 -127t121 -348q0 -50 -15 -133h-784q6 -123 76.5 -195t185.5 -72q84 0 164.5 48t142.5 135l170 -113q-101 -129 -221.5 -189.5t-275.5 -60.5q-216 0 -343.5 124.5t-127.5 336.5zM360 580h549v28 q0 105 -66 171.5t-171 66.5q-112 0 -193.5 -70t-118.5 -196zM365 1231l391 242l338 -244l-101 -142l-262 168l-297 -159z" />
<glyph unicode="&#xeb;" horiz-adv-x="1150" d="M115 428q0 122 45.5 232.5t123 189.5t184 125.5t224.5 46.5q209 0 330 -127t121 -348q0 -50 -15 -133h-784q6 -123 76.5 -195t185.5 -72q84 0 164.5 48t142.5 135l170 -113q-101 -129 -221.5 -189.5t-275.5 -60.5q-216 0 -343.5 124.5t-127.5 336.5zM360 580h549v28 q0 105 -66 171.5t-171 66.5q-112 0 -193.5 -70t-118.5 -196zM365 1225q0 58 43 99.5t102 41.5q54 0 91.5 -40t37.5 -97q0 -58 -42.5 -98.5t-102.5 -40.5q-54 0 -91.5 39.5t-37.5 95.5zM805 1227q0 57 43.5 98t103.5 41q53 0 91 -40t38 -97q0 -58 -42.5 -98.5t-104.5 -40.5 q-54 0 -91.5 40t-37.5 97z" />
<glyph unicode="&#xec;" horiz-adv-x="393" d="M59 1393l193 116l203 -331l-150 -93zM86 0l107 995h227l-103 -995h-231z" />
<glyph unicode="&#xed;" horiz-adv-x="393" d="M86 0l107 995h227l-103 -995h-231zM209 1182l272 336l166 -119l-313 -307z" />
<glyph unicode="&#xee;" horiz-adv-x="393" d="M-18 1231l391 242l338 -244l-101 -142l-262 168l-297 -159zM86 0l107 995h227l-103 -995h-231z" />
<glyph unicode="&#xef;" horiz-adv-x="393" d="M-14 1225q0 58 43 99.5t102 41.5q54 0 91.5 -40t37.5 -97q0 -58 -42.5 -98.5t-102.5 -40.5q-54 0 -91.5 39.5t-37.5 95.5zM86 0l107 995h227l-103 -995h-231zM426 1227q0 57 43.5 98t103.5 41q53 0 91 -40t38 -97q0 -58 -42.5 -98.5t-104.5 -40.5q-54 0 -91.5 40 t-37.5 97z" />
<glyph unicode="&#xf1;" horiz-adv-x="1112" d="M115 0l104 995h227l-14 -153q127 184 336 184q139 0 220 -79t81 -212q0 -73 -4 -104l-66 -631h-231l61 573q7 54 7 82q0 78 -48.5 125t-128.5 47q-107 0 -175.5 -76t-82.5 -208l-57 -543h-229zM375 1108l14 166q95 29 150 29q45 0 100 -15l84 -22q62 -17 135 -17 q89 0 166 43l-16 -168q-80 -30 -160 -30q-72 0 -154 20l-86 21q-36 8 -80 8q-79 0 -153 -35z" />
<glyph unicode="&#xf2;" horiz-adv-x="1216" d="M117 436q0 20 4 60q17 151 99.5 271t212 187.5t282.5 67.5q217 0 352 -130t135 -337q0 -161 -79.5 -296t-217 -212.5t-301.5 -77.5q-215 0 -351 130t-136 337zM340 457q0 -126 80.5 -207.5t204.5 -81.5q148 0 251 107.5t103 261.5q0 127 -79.5 207.5t-205.5 80.5 q-135 0 -235 -93.5t-115 -235.5q0 -6 -2 -19.5t-2 -19.5zM477 1393l193 116l202 -331l-149 -93z" />
<glyph unicode="&#xf3;" horiz-adv-x="1216" d="M117 436q0 20 4 60q17 151 99.5 271t212 187.5t282.5 67.5q217 0 352 -130t135 -337q0 -161 -79.5 -296t-217 -212.5t-301.5 -77.5q-215 0 -351 130t-136 337zM340 457q0 -126 80.5 -207.5t204.5 -81.5q148 0 251 107.5t103 261.5q0 127 -79.5 207.5t-205.5 80.5 q-135 0 -235 -93.5t-115 -235.5q0 -6 -2 -19.5t-2 -19.5zM604 1182l273 336l165 -119l-313 -307z" />
<glyph unicode="&#xf4;" horiz-adv-x="1216" d="M117 436q0 20 4 60q17 151 99.5 271t212 187.5t282.5 67.5q217 0 352 -130t135 -337q0 -161 -79.5 -296t-217 -212.5t-301.5 -77.5q-215 0 -351 130t-136 337zM340 457q0 -126 80.5 -207.5t204.5 -81.5q148 0 251 107.5t103 261.5q0 127 -79.5 207.5t-205.5 80.5 q-135 0 -235 -93.5t-115 -235.5q0 -6 -2 -19.5t-2 -19.5zM410 1231l391 242l338 -244l-101 -142l-262 168l-297 -159z" />
<glyph unicode="&#xf5;" horiz-adv-x="1216" d="M117 436q0 20 4 60q17 151 99.5 271t212 187.5t282.5 67.5q217 0 352 -130t135 -337q0 -161 -79.5 -296t-217 -212.5t-301.5 -77.5q-215 0 -351 130t-136 337zM340 457q0 -126 80.5 -207.5t204.5 -81.5q148 0 251 107.5t103 261.5q0 127 -79.5 207.5t-205.5 80.5 q-135 0 -235 -93.5t-115 -235.5q0 -6 -2 -19.5t-2 -19.5zM449 1108l14 166q95 29 149 29q46 0 101 -15l84 -22q62 -17 135 -17q89 0 166 43l-17 -168q-80 -30 -159 -30q-72 0 -154 20l-86 21q-36 8 -80 8q-79 0 -153 -35z" />
<glyph unicode="&#xf6;" horiz-adv-x="1216" d="M117 436q0 20 4 60q17 151 99.5 271t212 187.5t282.5 67.5q217 0 352 -130t135 -337q0 -161 -79.5 -296t-217 -212.5t-301.5 -77.5q-215 0 -351 130t-136 337zM340 457q0 -126 80.5 -207.5t204.5 -81.5q148 0 251 107.5t103 261.5q0 127 -79.5 207.5t-205.5 80.5 q-135 0 -235 -93.5t-115 -235.5q0 -6 -2 -19.5t-2 -19.5zM432 1276q0 58 44 99.5t106 41.5q51 0 88 -40t37 -97t-43 -97t-103 -40q-53 0 -91 39t-38 94zM854 1276q0 58 42.5 99.5t102.5 41.5q54 0 91.5 -40t37.5 -97t-42 -97t-103 -40q-54 0 -91.5 38.5t-37.5 94.5z" />
<glyph unicode="&#xf7;" horiz-adv-x="1216" d="M88 414v139h948v-139h-948zM446 207q0 49 33 82q38 35 84 35q49 0 82 -33t33 -84q0 -50 -35 -82q-30 -35 -80 -35q-49 0 -84 35q-33 38 -33 82zM446 758q0 49 33 82q34 31 84 34q50 0 80 -34q35 -35 35 -82q0 -50 -35 -82q-30 -35 -80 -35q-49 0 -84 35q-33 33 -33 82z " />
<glyph unicode="&#xf8;" horiz-adv-x="1224" d="M72 25l141 129q-10 12 -24.5 32.5t-20.5 28.5q-51 87 -51 221q0 162 79.5 298.5t217 215t301.5 78.5q86 0 178 -29q43 -13 77 -32.5t91 -63.5l141 117l53 -70l-133 -114q22 -34 33 -60q47 -92 47 -219q0 -162 -79.5 -297.5t-216.5 -213t-302 -77.5q-90 0 -176 27 q-39 12 -71.5 30.5t-84.5 57.5l-137 -119zM348 457q0 -49 7 -80t30 -74l510 451q-50 40 -93.5 55.5t-101.5 15.5q-150 0 -251 -106t-101 -262zM440 236q46 -37 88 -52.5t97 -15.5q146 0 250 107.5t104 259.5q0 77 -29 151z" />
<glyph unicode="&#xf9;" horiz-adv-x="1120" d="M158 319q0 60 4 91l61 585h230l-60 -563q-4 -50 -4 -70q0 -83 52 -129.5t143 -46.5q109 0 174 62q32 31 46.5 70t22.5 114l62 563h227l-61 -585q-12 -101 -37 -166q-51 -123 -175.5 -198t-279.5 -75q-183 0 -294 95.5t-111 252.5zM430 1393l193 116l202 -331l-149 -93z " />
<glyph unicode="&#xfa;" horiz-adv-x="1120" d="M158 319q0 60 4 91l61 585h230l-60 -563q-4 -50 -4 -70q0 -83 52 -129.5t143 -46.5q109 0 174 62q32 31 46.5 70t22.5 114l62 563h227l-61 -585q-12 -101 -37 -166q-51 -123 -175.5 -198t-279.5 -75q-183 0 -294 95.5t-111 252.5zM580 1182l272 336l166 -119l-313 -307z " />
<glyph unicode="&#xfb;" horiz-adv-x="1120" d="M158 319q0 60 4 91l61 585h230l-60 -563q-4 -50 -4 -70q0 -83 52 -129.5t143 -46.5q109 0 174 62q32 31 46.5 70t22.5 114l62 563h227l-61 -585q-12 -101 -37 -166q-51 -123 -175.5 -198t-279.5 -75q-183 0 -294 95.5t-111 252.5zM342 1231l391 242l338 -244l-100 -142 l-262 168l-297 -159z" />
<glyph unicode="&#xfc;" horiz-adv-x="1120" d="M158 319q0 60 4 91l61 585h230l-60 -563q-4 -50 -4 -70q0 -83 52 -129.5t143 -46.5q109 0 174 62q32 31 46.5 70t22.5 114l62 563h227l-61 -585q-12 -101 -37 -166q-51 -123 -175.5 -198t-279.5 -75q-183 0 -294 95.5t-111 252.5zM365 1276q0 60 42.5 100.5t102.5 40.5 q54 0 91.5 -39.5t37.5 -97.5q0 -57 -43.5 -97t-103.5 -40q-53 0 -90 39t-37 94zM801 1276q0 60 41.5 100.5t101.5 40.5q53 0 91 -39.5t38 -97.5q0 -57 -43 -97t-104 -40q-51 0 -88 39t-37 94z" />
<glyph unicode="&#xff;" horiz-adv-x="913" d="M-47 -383l67 199q50 -17 93 -17q93 0 145 76q28 42 86 154l-291 966h246l160 -569q24 -88 24 -180q22 91 66 180l278 569h248l-553 -1071q-1 -1 -10 -17.5t-16 -27.5q-14 -23 -33.5 -57t-27 -46t-19.5 -30.5t-20.5 -29.5t-20.5 -23q-47 -47 -118.5 -74t-150.5 -27 q-82 0 -153 25zM246 1225q0 58 43 99.5t102 41.5q54 0 91.5 -40t37.5 -97q0 -58 -42.5 -98.5t-102.5 -40.5q-54 0 -91.5 39.5t-37.5 95.5zM686 1227q0 57 44 98t104 41q53 0 91 -40t38 -97q0 -58 -43 -98.5t-105 -40.5q-54 0 -91.5 40t-37.5 97z" />
<glyph unicode="&#x152;" horiz-adv-x="2203" d="M145 653q0 136 43.5 265.5t123.5 234t185 184t235 123t267 43.5q156 0 275 -50t188 -146l17 170h790l-22 -205h-553l-39 -379h475l-21 -199h-475l-51 -487h576l-21 -207h-815l18 172q-27 -32 -51 -53q-178 -148 -450 -148q-202 0 -360.5 86t-246.5 241.5t-88 354.5z M387 686q0 -217 136 -352t354 -135q120 0 228.5 44.5t176.5 121.5q58 66 87.5 150t43.5 222q8 71 8 160q0 171 -120.5 276t-317.5 105q-149 0 -282 -73.5t-217 -200.5t-95 -277q-2 -14 -2 -41z" />
<glyph unicode="&#x153;" horiz-adv-x="1992" d="M117 434q0 160 80.5 295t219 213t302.5 78q226 0 348 -146q33 -42 51 -79q129 225 408 225q210 0 336.5 -127t126.5 -340q0 -60 -21 -152h-774q9 -118 76.5 -180.5t183.5 -62.5q188 0 293 178l188 -78q-33 -52 -54.5 -79.5t-55.5 -59.5q-169 -152 -393 -152 q-149 0 -248 59.5t-137 170.5q-44 -62 -66 -84q-150 -144 -375 -144q-221 0 -355 127.5t-134 337.5zM344 457q0 -129 77.5 -207t205.5 -78q149 0 251.5 106t102.5 261q0 126 -77 201t-206 75q-140 0 -238.5 -88t-113.5 -229q-2 -14 -2 -41zM1219 567h534q2 16 2 41 q0 104 -63.5 168t-169.5 64q-118 0 -198 -72.5t-105 -200.5z" />
<glyph unicode="&#x178;" horiz-adv-x="1032" d="M98 1477h269l206 -498q29 -71 29 -164q24 100 64 164l311 498h270l-545 -824l-69 -653h-234l68 653zM362 1778q0 58 43.5 99.5t102.5 41.5q54 0 91.5 -40t37.5 -97q0 -58 -42.5 -99t-102.5 -41q-54 0 -92 40t-38 96zM803 1780q0 57 43.5 98t103.5 41q53 0 91 -40t38 -97 q0 -59 -43 -99.5t-104 -40.5q-54 0 -91.5 40.5t-37.5 97.5z" />
<glyph unicode="&#x2c6;" horiz-adv-x="743" d="M137 1231l391 242l338 -244l-100 -142l-262 168l-297 -159z" />
<glyph unicode="&#x2dc;" horiz-adv-x="651" d="M127 1108l14 166q95 29 150 29q45 0 100 -15l84 -22q62 -17 135 -17q89 0 166 43l-16 -168q-80 -30 -160 -30q-72 0 -154 20l-86 21q-36 8 -79 8q-80 0 -154 -35z" />
<glyph unicode="&#x2000;" horiz-adv-x="1035" />
<glyph unicode="&#x2001;" horiz-adv-x="2071" />
<glyph unicode="&#x2002;" horiz-adv-x="1035" />
<glyph unicode="&#x2003;" horiz-adv-x="2071" />
<glyph unicode="&#x2004;" horiz-adv-x="690" />
<glyph unicode="&#x2005;" horiz-adv-x="517" />
<glyph unicode="&#x2006;" horiz-adv-x="345" />
<glyph unicode="&#x2007;" horiz-adv-x="345" />
<glyph unicode="&#x2008;" horiz-adv-x="258" />
<glyph unicode="&#x2009;" horiz-adv-x="414" />
<glyph unicode="&#x200a;" horiz-adv-x="115" />
<glyph unicode="&#x2010;" horiz-adv-x="649" d="M117 387l22 221h498l-25 -221h-495z" />
<glyph unicode="&#x2011;" horiz-adv-x="649" d="M117 387l22 221h498l-25 -221h-495z" />
<glyph unicode="&#x2012;" horiz-adv-x="649" d="M117 387l22 221h498l-25 -221h-495z" />
<glyph unicode="&#x2013;" d="M193 637l20 194h981l-20 -194h-981z" />
<glyph unicode="&#x2014;" horiz-adv-x="2039" d="M61 637l21 194h1917l-21 -194h-1917z" />
<glyph unicode="&#x2018;" horiz-adv-x="438" d="M125 958l250 555l155 -36l-172 -570z" />
<glyph unicode="&#x2019;" horiz-adv-x="438" d="M121 950l172 570l237 -52l-251 -550z" />
<glyph unicode="&#x201a;" horiz-adv-x="436" d="M-6 -276l170 571l237 -51l-249 -553z" />
<glyph unicode="&#x201c;" horiz-adv-x="796" d="M125 958l250 553l155 -34l-172 -570zM483 958l250 553l160 -34l-176 -570z" />
<glyph unicode="&#x201d;" horiz-adv-x="796" d="M121 958l174 570l235 -51l-249 -553zM483 958l170 570l240 -51l-254 -553z" />
<glyph unicode="&#x201e;" horiz-adv-x="794" d="M-6 -276l170 571l237 -51l-249 -553zM352 -276l172 571l236 -51l-248 -553z" />
<glyph unicode="&#x2022;" d="M520 496q0 62 47 106.5t113 44.5q57 0 98 -44t41 -105q0 -62 -47 -106t-113 -44q-58 0 -98.5 43t-40.5 105z" />
<glyph unicode="&#x2026;" horiz-adv-x="2039" d="M195 125q0 61 42.5 104t104.5 43t104.5 -43t42.5 -104q0 -62 -43 -105t-104 -43t-104 43t-43 105zM877 125q0 61 42.5 104t104.5 43t104.5 -43t42.5 -104q0 -62 -43 -105t-104 -43t-104 43t-43 105zM1559 125q0 61 43.5 104t103.5 43q62 0 104.5 -43t42.5 -104 q0 -62 -43 -105t-104 -43q-60 0 -103.5 43.5t-43.5 104.5z" />
<glyph unicode="&#x202f;" horiz-adv-x="414" />
<glyph unicode="&#x2039;" horiz-adv-x="829" d="M129 500l602 487l113 -137l-441 -346l367 -359l-141 -141z" />
<glyph unicode="&#x203a;" horiz-adv-x="831" d="M90 147l447 353l-369 356l139 137l502 -499l-608 -488z" />
<glyph unicode="&#x205f;" horiz-adv-x="517" />
<glyph unicode="&#x20ac;" horiz-adv-x="1687" d="M137 498l101 182h131q0 21 4 57q2 20 10 60h-209l100 182h164q102 236 320 382t479 146q279 0 469 -166l-125 -227q-64 81 -160 126.5t-211 45.5q-157 0 -296 -84t-224 -223h819l-100 -182h-791q-8 -40 -10 -60q-4 -36 -4 -57h739l-100 -182h-610q46 -140 165 -225 t277 -85q116 0 223.5 45.5t192.5 126.5l-37 -292q-194 -101 -405 -101q-263 0 -445 147t-225 384h-242z" />
<glyph unicode="&#x2122;" horiz-adv-x="1564" d="M258 1364l18 111h447l-18 -111h-164l-117 -627h-123l117 627h-160zM561 737l277 752h80l104 -445l10 -49l2 -8q3 -43 -2 -82q2 6 12 41q16 50 46 98l278 445h80l-2 -752h-123l8 422v27l2 16q3 38 15 78q-12 -32 -33 -76l-17 -35l-4 -6l-268 -438h-51l-101 438l-2 13 l-4 28q-8 50 -8 76q-3 -36 -12 -78l-6 -24l-6 -19l-152 -422h-123z" />
<glyph unicode="&#xe000;" horiz-adv-x="993" d="M0 0v993h993v-993h-993z" />
</font>
</defs>
</svg>
