<?xml version="1.0" standalone="no"?>
<!DOCTYPE svg PUBLIC "-//W3C//DTD SVG 1.1//EN" "http://www.w3.org/Graphics/SVG/1.1/DTD/svg11.dtd" >
<svg xmlns="http://www.w3.org/2000/svg">
<metadata></metadata>
<defs>
<font id="montreal_serial_lightregular" horiz-adv-x="1193" >
<font-face units-per-em="2048" ascent="1638" descent="-410" />
<missing-glyph horiz-adv-x="593" />
<glyph horiz-adv-x="0" />
<glyph horiz-adv-x="0" />
<glyph horiz-adv-x="682" />
<glyph unicode="&#xd;" horiz-adv-x="593" />
<glyph unicode=" "  horiz-adv-x="593" />
<glyph unicode="&#x09;" horiz-adv-x="593" />
<glyph unicode="&#xa0;" horiz-adv-x="593" />
<glyph unicode="!" horiz-adv-x="432" d="M121 61q0 40 28 68.5t66 28.5q39 0 66.5 -28.5t27.5 -68.5q0 -38 -27 -64t-65 -26q-40 0 -68 26t-28 64zM156 311v1166h118v-1166h-118z" />
<glyph unicode="&#x22;" horiz-adv-x="632" d="M18 1059l150 463l139 -45l-198 -445zM279 1059l151 463l139 -45l-198 -445z" />
<glyph unicode="#" horiz-adv-x="1294" d="M109 475l18 86h235l74 352h-235l18 86h236l92 439h86l-92 -439h227l92 439h86l-92 -439h236l-19 -86h-235l-76 -352h237l-18 -86h-236l-92 -438h-86l92 438h-227l-92 -438h-86l92 438h-235zM449 561h225l76 352h-228z" />
<glyph unicode="$" horiz-adv-x="1019" d="M8 301l105 53q53 -127 132 -192t201 -80v657q-183 68 -264.5 160t-81.5 225q0 154 98.5 258.5t247.5 110.5v117h76v-115h19q64 0 113.5 -17.5t103.5 -58.5q43 -33 71.5 -66t55.5 -85l-101 -60q-41 85 -102.5 131.5t-130.5 46.5h-29v-550q49 -18 150 -66q70 -33 135 -78 q143 -103 143 -286q0 -185 -119 -305.5t-309 -127.5v-125h-76v125q-87 3 -149.5 24.5t-124.5 68.5q-55 44 -92.5 98t-71.5 137zM227 1130q0 -59 25.5 -110t69.5 -80q48 -31 124 -68v512q-101 -20 -160 -88.5t-59 -165.5zM522 82q129 8 217 97.5t88 213.5q0 102 -64.5 168 t-240.5 144v-623z" />
<glyph unicode="%" horiz-adv-x="1673" d="M78 1145q0 151 107 256.5t259 105.5q154 0 261.5 -105.5t107.5 -256.5q0 -149 -108.5 -255t-262.5 -106q-151 0 -257.5 106t-106.5 255zM188 1145q0 -107 75 -183.5t181 -76.5t183.5 76.5t77.5 183.5t-76.5 183.5t-184.5 76.5q-106 0 -181 -76.5t-75 -183.5zM389 12 l797 1499l98 -53l-801 -1497zM862 330q0 151 108.5 257.5t260.5 106.5q151 0 257.5 -106.5t106.5 -257.5q0 -149 -107 -255t-259 -106t-259.5 106t-107.5 255zM973 330q0 -107 75 -183.5t181 -76.5t181 76.5t75 183.5q0 109 -75 186.5t-181 77.5t-181 -77.5t-75 -186.5z" />
<glyph unicode="&#x26;" horiz-adv-x="1282" d="M78 406q0 87 31 156t102 140q88 88 207 166q-170 196 -170 349q0 120 90 202t223 82q129 0 218 -80t89 -198q0 -95 -65.5 -182t-216.5 -193l377 -455l200 219l82 -82l-205 -221l222 -262l-84 -72l-222 258q-147 -150 -246 -208t-208 -58q-175 0 -299.5 129t-124.5 310z M195 403q0 -131 93 -226t220 -95q71 0 133.5 32t151.5 115q49 45 90 88l-387 463q-166 -113 -233.5 -197.5t-67.5 -179.5zM371 1217q0 -60 32.5 -125t110.5 -160q120 78 175.5 148.5t55.5 142.5q0 74 -54.5 124t-133.5 50q-81 0 -133.5 -52t-52.5 -128z" />
<glyph unicode="'" horiz-adv-x="372" d="M18 1053l150 460l139 -43l-198 -444z" />
<glyph unicode="(" horiz-adv-x="370" d="M78 737q0 158 24.5 338t67.5 328q14 54 80 229l90 -28q-50 -144 -72 -238q-33 -135 -53 -310.5t-20 -318.5q0 -142 20 -317.5t53 -308.5q19 -80 72 -238l-90 -31q-63 168 -80 232q-43 148 -67.5 327.5t-24.5 335.5z" />
<glyph unicode=")" horiz-adv-x="372" d="M29 -121q56 156 77 254q68 281 68 604q0 325 -68 606q-21 96 -77 256l90 31q47 -117 82 -237q94 -344 94 -656q0 -309 -94 -653q-39 -131 -82 -238z" />
<glyph unicode="*" horiz-adv-x="837" d="M61 1180l27 123l285 -97l-17 307h117l-16 -307l288 99l29 -125l-303 -45l176 -250l-108 -60l-127 267l-138 -256l-108 63l190 238z" />
<glyph unicode="+" d="M131 688v105h410v409h114v-409h410v-105h-410v-414h-114v414h-410z" />
<glyph unicode="," horiz-adv-x="366" d="M18 -248l150 463l135 -43l-197 -446z" />
<glyph unicode="-" horiz-adv-x="630" d="M78 442v115h475v-115h-475z" />
<glyph unicode="." horiz-adv-x="315" d="M61 66q0 38 28.5 66t68.5 28q38 0 65 -28.5t27 -68.5q0 -38 -27 -65t-65 -27q-40 0 -68.5 27.5t-28.5 67.5z" />
<glyph unicode="/" horiz-adv-x="462" d="M4 0l346 1493l107 -16l-344 -1493z" />
<glyph unicode="0" d="M74 737q0 354 140.5 560t383.5 206q242 0 383 -206.5t141 -559.5t-141.5 -560.5t-382.5 -207.5q-243 0 -383.5 207t-140.5 561zM197 737q0 -309 106.5 -484t294.5 -175t294.5 175t106.5 484q0 308 -107 484t-294 176q-188 0 -294.5 -175.5t-106.5 -484.5z" />
<glyph unicode="1" d="M328 0v104h217v1268h-213v105h330v-1373h217v-104h-551z" />
<glyph unicode="2" d="M117 1077q0 185 138 306.5t347 121.5q215 0 356.5 -126.5t141.5 -319.5q0 -149 -99 -275q-78 -104 -217 -229l-499 -451h827v-104h-987v106l575 525q159 144 219 237t60 193q0 146 -108 241t-275 95q-152 0 -254 -91.5t-102 -228.5q0 -23 6 -73h-121q-8 37 -8 73z" />
<glyph unicode="3" d="M125 381l123 6q13 -145 105.5 -227t240.5 -82q153 0 253.5 95t100.5 241q0 140 -95 228.5t-245 88.5q-3 0 -15.5 -1t-25.5 -1v109q23 -2 41 -2q129 0 209 77.5t80 202.5q0 126 -87 205.5t-224 79.5q-126 0 -207 -69t-94 -189h-123q17 166 133.5 264t296.5 98 q184 0 304 -109t120 -276q0 -233 -225 -332q280 -92 280 -370q0 -193 -135.5 -321t-339.5 -128q-201 0 -328.5 111.5t-142.5 300.5z" />
<glyph unicode="4" d="M61 348l816 1127h51v-1092h190v-104h-190v-279h-119v279h-715zM219 383h590v717q0 66 16 145q-35 -74 -77 -131z" />
<glyph unicode="5" d="M43 309l100 53q37 -134 141.5 -209t254.5 -75q183 0 301 115t118 292q0 166 -117 273.5t-300 107.5q-61 0 -109.5 -11.5t-112.5 -39.5l-51 31l197 631h610v-105h-524l-137 -428q92 23 161 23q217 0 361.5 -136.5t144.5 -341.5q0 -224 -155 -372t-387 -148 q-186 0 -317.5 89.5t-178.5 250.5z" />
<glyph unicode="6" d="M80 449q0 159 108 325q59 90 127 187l383 538l90 -63l-405 -564q77 35 126.5 46.5t113.5 11.5q210 0 350.5 -134t140.5 -335q0 -211 -147 -352.5t-367 -141.5q-226 0 -373 136.5t-147 345.5zM199 432q0 -155 115.5 -256.5t283.5 -101.5q171 0 286 111t115 276 q0 159 -115.5 264.5t-287.5 105.5q-173 0 -285 -108t-112 -277v-14z" />
<glyph unicode="7" d="M100 33l856 1339h-815v105h955v-97l-901 -1405z" />
<glyph unicode="8" d="M131 389q0 96 44 179.5t124 140.5q36 28 109 55q-121 44 -183.5 132.5t-62.5 213.5q0 172 123.5 284.5t312.5 112.5q188 0 311 -112.5t123 -284.5q0 -125 -62.5 -213.5t-183.5 -132.5q73 -27 109 -55q81 -57 124.5 -140t43.5 -180q0 -181 -132.5 -300.5t-332.5 -119.5 t-333.5 119.5t-133.5 300.5zM258 391q0 -134 97 -223.5t243 -89.5q145 0 240.5 89t95.5 224t-96 226.5t-240 91.5q-146 0 -243 -91.5t-97 -226.5zM281 1112q0 -19 2 -27q10 -118 99.5 -194t215.5 -76q132 0 222.5 85.5t90.5 211.5q0 124 -89.5 206.5t-223.5 82.5 q-137 0 -227 -82.5t-90 -206.5z" />
<glyph unicode="9" d="M82 1012q0 212 147.5 353.5t368.5 141.5t368.5 -135.5t147.5 -339.5q0 -113 -47 -217.5t-174 -279.5l-406 -560l-90 64l418 567q-78 -38 -127.5 -51.5t-112.5 -13.5q-211 0 -352 135t-141 336zM197 1014q0 -161 114 -266t287 -105q172 0 284.5 108.5t112.5 276.5 q0 160 -113.5 267.5t-283.5 107.5q-169 0 -285 -106t-116 -267v-16z" />
<glyph unicode=":" horiz-adv-x="432" d="M121 63q0 40 28 68.5t66 28.5q39 0 66.5 -28.5t27.5 -68.5q0 -38 -27 -65t-67 -27q-38 0 -66 27t-28 65zM125 739q0 38 27 65t65 27t64 -27t26 -65t-27 -65t-65 -27t-64 26t-26 66z" />
<glyph unicode=";" horiz-adv-x="411" d="M33 -248l151 463l135 -43l-200 -446zM111 739q0 38 28 65t68 27q38 0 66 -27t28 -65q0 -39 -29 -66.5t-69 -27.5q-37 0 -64.5 27.5t-27.5 66.5z" />
<glyph unicode="&#x3c;" horiz-adv-x="686" d="M78 498l452 463l78 -80l-375 -381l373 -383l-78 -82z" />
<glyph unicode="=" d="M131 578v108h934v-108h-934zM131 791v106h934v-106h-934z" />
<glyph unicode="&#x3e;" horiz-adv-x="686" d="M78 119l377 379l-377 387l78 78l450 -467l-448 -459z" />
<glyph unicode="?" horiz-adv-x="1011" d="M18 1063q15 202 143 322t328 120q206 0 341 -135t135 -342q0 -183 -111 -309q-67 -79 -152 -115q-10 -4 -30 -11.5t-53.5 -19.5t-65.5 -24q-20 -5 -25 -6q-32 -9 -41 -25q-12 -24 -12 -57v-144h-115v166q0 70 19 99.5t76 44.5l39 10q185 49 268.5 144t83.5 247 q0 164 -98.5 267.5t-255.5 103.5q-158 0 -256 -98t-103 -259zM328 63q0 40 26 67.5t64 27.5t66 -28t28 -67q0 -38 -27 -65t-65 -27q-37 0 -64.5 27t-27.5 65z" />
<glyph unicode="@" horiz-adv-x="1708" d="M123 643q-17 154 20.5 298.5t124.5 262.5q94 128 224 205t272 92q164 18 305.5 -32.5t236.5 -152t137.5 -252t16.5 -323.5q-31 -195 -124.5 -312.5t-207.5 -133.5q-90 -13 -151.5 42t-52.5 136q-11 -41 -41 -74q-117 -132 -271 -61q-76 35 -117 127.5t-32 234.5 q4 48 8 74q20 129 72.5 228t124.5 153q102 72 193 55t138 -110q11 -21 11 -23l18 127l98 -2l-79 -446l-29 -185q-11 -71 6 -129q10 -38 46 -56.5t73 -4.5q30 11 56 32.5t65 69.5q76 90 102 277q21 157 -17.5 289.5t-121 218.5t-204.5 125t-263 18q-106 -16 -201 -70.5 t-164 -137t-114.5 -189t-52 -226.5t23.5 -249q40 -157 136.5 -272.5t219.5 -169.5t268 -45t277 89q38 22 102 74q65 56 115 115l47 -54q-6 -7 -16.5 -19t-19.5 -22t-17 -18q-238 -244 -537 -244q-181 0 -334 83.5t-251 237t-119 349.5zM571 594q6 -82 27 -129 q29 -62 95.5 -73t119.5 38q30 28 49.5 64.5t44.5 107.5q25 72 41 164l4 22l13 84q11 78 2 123.5t-43 83.5q-30 33 -70 42.5t-84 -8.5t-80 -64q-42 -54 -80 -166q-16 -52 -24 -103q-18 -106 -15 -186z" />
<glyph unicode="A" horiz-adv-x="1236" d="M-59 0l624 1477h109l620 -1477h-135l-196 469h-689l-198 -469h-135zM322 582h596l-254 616q-27 61 -46 143q-21 -87 -45 -143z" />
<glyph unicode="B" horiz-adv-x="1069" d="M131 0v1477h277q102 0 170 -11q135 -26 219 -126.5t84 -235.5q0 -116 -55 -196t-160 -117q170 -17 262 -117t92 -266q0 -196 -141 -314q-66 -54 -134 -74t-190 -20h-424zM254 111h266q113 0 172.5 16t110.5 59q98 86 98 224q0 149 -101 226t-296 77h-250v-602zM254 823 h168q163 0 250.5 71.5t87.5 203.5t-86 199t-254 67h-166v-541z" />
<glyph unicode="C" horiz-adv-x="1386" d="M76 725q0 164 59 308.5t160.5 247.5t244 162.5t304.5 59.5q142 0 272 -47q57 -20 101.5 -45.5t119.5 -81.5l-65 -96q-71 54 -90 67q-70 43 -159 68t-177 25q-135 0 -255 -51.5t-206 -139.5t-136 -210.5t-50 -260.5q0 -135 49.5 -255.5t134 -207t203 -136.5t252.5 -50 q129 0 256 53q46 19 80.5 40t91.5 65l69 -97q-42 -32 -94 -63q-180 -111 -412 -111q-211 0 -383.5 99t-271 272.5t-98.5 384.5z" />
<glyph unicode="D" horiz-adv-x="1314" d="M131 0v1477h309q148 0 267 -29q241 -60 387.5 -253.5t146.5 -453.5q0 -165 -60 -309t-173 -248q-103 -97 -228.5 -140.5t-298.5 -43.5h-350zM254 113h238q278 0 453 174.5t175 451.5q0 286 -186 455.5t-500 169.5h-180v-1251z" />
<glyph unicode="E" horiz-adv-x="940" d="M131 0v1477h723v-113h-600v-496h528v-110h-528v-647h625v-111h-748z" />
<glyph unicode="F" horiz-adv-x="788" d="M131 0v1477h645v-113h-522v-496h457v-110h-457v-758h-123z" />
<glyph unicode="G" horiz-adv-x="1634" d="M76 721q0 222 100 401t277 280t397 101q283 0 491 -176q69 -61 140 -160l-92 -77q-35 52 -58.5 79.5t-58.5 59.5q-187 164 -426 164q-134 0 -253.5 -51.5t-205.5 -139t-136 -210t-50 -259.5q0 -139 49 -260.5t134.5 -207.5t207 -135.5t260.5 -49.5q249 0 405 138t187 386 h-549v111h678v-15q0 -334 -197.5 -532.5t-527.5 -198.5q-166 0 -309.5 56.5t-245 155.5t-159.5 239t-58 301z" />
<glyph unicode="H" horiz-adv-x="1343" d="M131 0v1477h123v-609h836v609h127v-1477h-127v756h-836v-756h-123z" />
<glyph unicode="I" horiz-adv-x="385" d="M131 0v1477h123v-1477h-123z" />
<glyph unicode="J" horiz-adv-x="626" d="M-55 92l82 88q72 -100 170 -100q57 0 97.5 28t57.5 80q21 67 21 209v1080h123v-1088q0 -118 -6 -166t-29 -98q-35 -75 -102.5 -115.5t-159.5 -40.5q-154 0 -254 123z" />
<glyph unicode="K" horiz-adv-x="1034" d="M131 0v1477h123v-1477h-123zM262 776l617 701h161l-626 -701l688 -776h-154z" />
<glyph unicode="L" horiz-adv-x="737" d="M131 0v1477h123v-1366h477v-111h-600z" />
<glyph unicode="M" horiz-adv-x="1763" d="M53 0l172 1477h78l535 -1168q23 -54 43 -139q26 90 47 139l530 1168h78l174 -1477h-127l-115 1083q-4 50 -4 101v39q-15 -64 -43 -123l-503 -1100h-72l-506 1100q-28 59 -41 123q2 -16 2 -37q0 -53 -4 -103l-117 -1083h-127z" />
<glyph unicode="N" horiz-adv-x="1585" d="M131 0v1477h98l1018 -1160q46 -54 60.5 -74t35.5 -59q-12 102 -12 172v1121h125v-1477h-92l-1040 1180q-45 50 -82 112q12 -73 12 -151v-1141h-123z" />
<glyph unicode="O" horiz-adv-x="1695" d="M76 737q0 162 59 305.5t161.5 245t245.5 160.5t306 59q162 0 305.5 -59t246 -161t161.5 -245t59 -305t-59 -304.5t-161.5 -244t-246 -160.5t-305.5 -59t-305.5 59t-246 160.5t-161.5 244t-59 304.5zM199 737q0 -183 85 -333t234 -236t330 -86q136 1 256.5 51.5 t206.5 137.5t136 208t50 258q0 138 -50 260t-136 209.5t-206.5 138t-256.5 50.5q-135 0 -255.5 -50.5t-207 -138t-136.5 -209.5t-50 -260z" />
<glyph unicode="P" horiz-adv-x="899" d="M131 0v1477h287q98 0 151 -9q144 -23 228 -125.5t84 -255.5q0 -183 -110.5 -288t-305.5 -105h-211v-694h-123zM254 807h168q165 0 250.5 72.5t85.5 210.5q0 107 -63.5 179t-172.5 89q-41 6 -116 6h-152v-557z" />
<glyph unicode="Q" horiz-adv-x="1693" d="M76 737q0 162 59 305t161.5 245t246 161t305.5 59q216 0 393 -100.5t278 -276.5t101 -391q0 -149 -55 -297q-27 -69 -57 -118t-95 -127l199 -187l-88 -84l-197 199q-73 -48 -94 -59q-177 -97 -387 -97q-215 0 -391.5 100.5t-277.5 276.5t-101 391zM199 737 q0 -135 50.5 -256.5t136 -209t205.5 -138.5t253 -51q166 0 327 82q4 2 16 9.5t25 15t27 14.5l-360 352l88 90l362 -362q53 72 75.5 109.5t41.5 88.5q49 122 49 258q0 137 -50 258.5t-136 208t-206 137t-255 50.5q-136 0 -256 -50.5t-206.5 -137.5t-136.5 -208.5t-50 -259.5z " />
<glyph unicode="R" horiz-adv-x="931" d="M131 0v1477h277q98 0 176 -19q129 -31 203.5 -131.5t74.5 -245.5q0 -178 -105.5 -281t-295.5 -112l477 -688h-154l-530 774v-774h-123zM254 780h135q167 0 256.5 76t89.5 219q0 140 -83 214.5t-242 74.5h-156v-584z" />
<glyph unicode="S" horiz-adv-x="1019" d="M8 299l105 57q113 -274 376 -274q141 0 236.5 91t95.5 226q0 122 -92 193q-75 57 -250 133q-144 63 -184 84.5t-86 62.5q-52 45 -80.5 111t-28.5 139q0 163 115 272t285 109q258 0 385 -235l-101 -60q-94 187 -284 187q-115 0 -195 -75.5t-80 -184.5q0 -99 60 -162 q32 -36 72.5 -58.5t181.5 -83.5q175 -72 270 -139q68 -47 104.5 -121.5t36.5 -164.5q0 -191 -130.5 -314t-334.5 -123q-349 0 -477 330z" />
<glyph unicode="T" horiz-adv-x="817" d="M-37 1358v119h889v-119h-383v-1358h-123v1358h-383z" />
<glyph unicode="U" horiz-adv-x="1310" d="M131 569v908h123v-904q0 -120 14 -202q26 -133 129.5 -210t257.5 -77q95 0 176 32t134 91q57 62 74.5 130.5t17.5 235.5v904h125v-908q0 -161 -15 -235q-34 -166 -173 -265.5t-337 -99.5q-112 0 -215.5 38t-171.5 104q-83 79 -111 172.5t-28 285.5z" />
<glyph unicode="V" horiz-adv-x="1069" d="M-55 1477h135l412 -1139q33 -88 45 -154q12 77 41 154l411 1139h135l-549 -1477h-81z" />
<glyph unicode="W" horiz-adv-x="1978" d="M-39 1477h133l377 -1131q26 -77 39 -156q14 90 37 154l393 1133h96l396 -1133q19 -53 38 -154q5 49 10.5 75t24.5 81l379 1131h135l-508 -1477h-86l-389 1114q-26 80 -47 172q-21 -105 -45 -172l-393 -1114h-84z" />
<glyph unicode="X" horiz-adv-x="1148" d="M-18 0l510 784l-445 693h146l292 -461l35 -58q27 -50 55 -118q32 81 52 114q1 2 4 7t11 19.5t22 35.5l292 461h148l-445 -693l510 -784h-149l-365 578q-37 60 -49.5 85t-30.5 82q-19 -56 -32 -82.5t-49 -84.5l-363 -578h-149z" />
<glyph unicode="Y" horiz-adv-x="960" d="M-55 1477h145l342 -603q34 -60 49 -118q8 37 16.5 58.5t30.5 59.5l342 603h146l-471 -820v-657h-127v657z" />
<glyph unicode="Z" horiz-adv-x="1083" d="M37 0v84l762 1190q24 36 32 47.5t19.5 26t30.5 34.5q-41 -12 -63 -15t-79 -3h-635v113h912v-80l-754 -1186q-24 -36 -33.5 -49.5t-25 -31t-37.5 -36.5q81 17 135 17h743v-111h-1007z" />
<glyph unicode="[" horiz-adv-x="421" d="M121 -147v1773h276v-100h-157v-1575h157v-98h-276z" />
<glyph unicode="\" horiz-adv-x="632" d="M109 1475h110l258 -1475h-110z" />
<glyph unicode="]" horiz-adv-x="421" d="M27 -49h157v1575h-157v100h274v-1773h-274v98z" />
<glyph unicode="^" horiz-adv-x="667" d="M4 1176l332 227l328 -227l-54 -84l-274 180l-279 -176z" />
<glyph unicode="_" horiz-adv-x="1032" d="M109 0h737v-51h-737v51z" />
<glyph unicode="`" horiz-adv-x="514" d="M4 1333l82 86l322 -264l-64 -65z" />
<glyph unicode="a" horiz-adv-x="1226" d="M76 496q0 223 146.5 376.5t359.5 153.5q98 0 186.5 -37t151.5 -104q34 -39 59 -82v192h117v-995h-117v197q-35 -60 -51 -78q-63 -72 -152.5 -111t-193.5 -39q-220 0 -363 149t-143 378zM199 500q0 -184 113 -304t286 -120q169 0 278 119.5t109 306.5q0 183 -110.5 301.5 t-280.5 118.5q-166 0 -280.5 -122.5t-114.5 -299.5z" />
<glyph unicode="b" horiz-adv-x="1230" d="M131 0v1477h117v-676q67 115 164.5 170t232.5 55q224 0 367 -147.5t143 -376.5q0 -226 -145 -379.5t-357 -153.5q-203 0 -338 135q-23 25 -67 93v-197h-117zM248 494q0 -186 108 -299t283 -113q168 0 279.5 121t111.5 301t-112.5 299t-284.5 119q-171 0 -278 -119 t-107 -309z" />
<glyph unicode="c" horiz-adv-x="987" d="M76 489q0 231 156 384t393 153q86 0 198 -33q68 -22 125 -57l-47 -107q-13 8 -32 19.5t-25 15.5q-103 54 -221 54q-181 0 -302.5 -122t-121.5 -304q0 -178 118 -296t295 -118q83 0 160 26q56 20 129 70l47 -102q-13 -7 -36.5 -22t-32.5 -19q-128 -64 -273 -64 q-230 0 -380 147.5t-150 374.5z" />
<glyph unicode="d" horiz-adv-x="1228" d="M76 485q0 153 66.5 277t184.5 195t263 71q199 0 332 -139q27 -29 59 -82v670l117 -2v-1475h-117v213q-24 -55 -49 -88q-119 -156 -352 -156q-223 0 -363.5 144.5t-140.5 371.5zM203 489q0 -181 111 -297t284 -116q174 0 280.5 120t106.5 318q0 180 -108.5 294t-278.5 114 q-169 0 -282 -123.5t-113 -309.5z" />
<glyph unicode="e" horiz-adv-x="1130" d="M76 489q0 233 143 385t363 152q212 0 348.5 -141.5t136.5 -360.5q0 -6 -1 -29t-1 -40h-864q12 -175 115 -279t266 -104q248 0 356 239l109 -55q-72 -147 -185 -217t-278 -70q-228 0 -368 144t-140 376zM199 557h739q-4 167 -102 267t-256 100q-153 0 -253 -96.5 t-128 -270.5z" />
<glyph unicode="f" horiz-adv-x="438" d="M8 893v102h137v176q0 162 64 232q33 45 93.5 70.5t131.5 25.5q68 0 133 -22l-20 -103q-62 23 -109 23q-44 0 -83.5 -20t-61.5 -54q-29 -45 -29 -164v-164h277v-102h-277v-893h-119v893h-137z" />
<glyph unicode="g" horiz-adv-x="1218" d="M76 489q0 229 145 384t361 155q104 0 193.5 -39t148.5 -110q24 -31 47 -70v186h116v-929q0 -231 -131.5 -355.5t-377.5 -124.5q-356 0 -474 308l111 43q94 -244 381 -244q171 0 273 97t102 259v148q-56 -116 -150.5 -172t-238.5 -56q-220 0 -363 147t-143 373zM199 500 q0 -184 114 -305t285 -121q172 0 278.5 118.5t106.5 311.5q0 189 -108 306.5t-281 117.5q-168 0 -281.5 -122.5t-113.5 -305.5z" />
<glyph unicode="h" horiz-adv-x="1056" d="M131 0v1477h117v-656q114 205 332 205q90 0 163 -33.5t119 -95.5q38 -53 51 -111.5t13 -183.5v-602h-119v623q0 142 -66 219.5t-188 77.5q-135 0 -220 -102t-85 -263v-555h-117z" />
<glyph unicode="i" horiz-adv-x="376" d="M98 1264q0 40 27 68t65 28t65.5 -28t27.5 -68q0 -38 -27.5 -65.5t-65.5 -27.5q-39 0 -65.5 27t-26.5 66zM131 0v995h119v-995h-119z" />
<glyph unicode="j" horiz-adv-x="382" d="M-158 -383l21 109q65 -21 108 -21q51 0 91 25.5t55 68.5q20 58 20 172v1024h117v-1032q0 -92 -8 -143.5t-29 -95.5q-31 -62 -91.5 -96t-141.5 -34q-63 0 -142 23zM102 1264q0 40 27.5 68t67.5 28q38 0 66 -28t28 -68q0 -38 -28 -65.5t-68 -27.5q-38 0 -65.5 27.5 t-27.5 65.5z" />
<glyph unicode="k" horiz-adv-x="849" d="M131 0v1477h117v-1477h-117zM254 530l446 465h162l-454 -467l512 -528h-162z" />
<glyph unicode="l" horiz-adv-x="378" d="M131 0v1477h117v-1477h-117z" />
<glyph unicode="m" horiz-adv-x="1581" d="M131 0v995h117v-178q91 205 301 205q103 0 175 -50t103 -143q91 193 303 193q81 0 150 -30.5t111 -86.5q37 -50 49 -103.5t12 -174.5v-627h-119v618q0 90 -4 113q-10 83 -70.5 132.5t-150.5 49.5q-121 0 -188.5 -79t-67.5 -222v-612h-117v621q0 87 -4 110q-12 82 -71 132 t-142 50q-124 0 -197 -93t-73 -251v-569h-117z" />
<glyph unicode="n" horiz-adv-x="1056" d="M131 0v995h117v-192q105 223 342 223q76 0 145 -31t115 -84q43 -52 59.5 -111t16.5 -173v-627h-117v612q0 77 -8 113q-10 87 -78.5 142t-165.5 55q-139 0 -224 -102.5t-85 -270.5v-549h-117z" />
<glyph unicode="o" horiz-adv-x="1226" d="M76 498q0 227 152 377.5t384 150.5q234 0 387.5 -150t153.5 -378q0 -229 -153 -379t-388 -150q-232 0 -384 150t-152 379zM197 498q0 -183 118 -302.5t297 -119.5q180 0 299 119.5t119 302.5q0 182 -119 303t-299 121q-178 0 -296.5 -121t-118.5 -303z" />
<glyph unicode="p" horiz-adv-x="1220" d="M131 -385v1380h117v-215q21 43 49 82q123 164 354 164q217 0 355.5 -147t138.5 -379q0 -230 -140.5 -380.5t-357.5 -150.5q-101 0 -189 36.5t-149 103.5q-21 23 -61 92v-584zM246 498q0 -192 106 -306t283 -114q170 0 277.5 117.5t107.5 304.5q0 185 -107 302.5 t-276 117.5q-175 0 -283 -117t-108 -305z" />
<glyph unicode="q" horiz-adv-x="1210" d="M76 487q0 234 140.5 386.5t358.5 152.5q264 0 388 -213v182h120v-1378l-120 -2v592q-55 -121 -152 -179.5t-242 -58.5q-218 0 -355.5 144.5t-137.5 373.5zM197 487q0 -181 110 -297t279 -116q175 0 278 118t103 318q0 188 -103.5 300t-277.5 112q-170 0 -279.5 -122.5 t-109.5 -312.5z" />
<glyph unicode="r" horiz-adv-x="573" d="M131 0v995h117v-202q40 109 116 168t177 59q47 0 104 -16l-41 -125q-42 18 -82 18q-121 0 -197.5 -94t-76.5 -242v-561h-117z" />
<glyph unicode="s" horiz-adv-x="772" d="M16 207l103 47q35 -88 99.5 -134t152.5 -46q97 0 160 56t63 142q0 75 -49 121q-44 39 -164 88l-37.5 15t-32.5 12.5t-25.5 10t-22 9.5t-17 7.5t-15.5 7t-12.5 6.5t-12.5 7.5t-11 7.5t-13 9q-94 66 -94 185q0 114 83 189t208 75q94 0 168.5 -43.5t118.5 -124.5l-99 -55 q-69 123 -188 123q-72 0 -120 -46t-48 -112q0 -50 30.5 -85t98.5 -61l102 -38q133 -50 193 -101q82 -76 82 -196q0 -134 -98.5 -224t-247.5 -90q-250 0 -355 238z" />
<glyph unicode="t" horiz-adv-x="503" d="M4 893v102h135v279h119v-279h277v-102h-277v-588q0 -72 4 -92q6 -61 47 -96t107 -35q54 0 108 22l29 -104q-91 -23 -156 -23q-136 0 -209 95q-32 43 -40.5 83t-8.5 154v584h-135z" />
<glyph unicode="u" horiz-adv-x="1048" d="M131 393v602h117v-602q0 -76 8 -117q20 -91 92 -143.5t178 -52.5q139 0 207 77.5t68 235.5v602h121v-602q0 -89 -15 -151q-28 -121 -134 -197t-249 -76q-82 0 -159.5 29t-128.5 80q-58 57 -81.5 128t-23.5 187z" />
<glyph unicode="v" horiz-adv-x="845" d="M-61 995h131l303 -696q37 -84 49 -164q15 88 49 164l305 696h131l-446 -995h-78z" />
<glyph unicode="w" horiz-adv-x="1478" d="M-39 995h131l256 -678q33 -88 45 -149q7 36 19 76q2 7 28 75l258 676h82l258 -676q8 -22 15 -39t9.5 -24t4.5 -12q9 -30 18 -76q17 77 45 149l254 678h136l-398 -995h-75l-250 653q-33 87 -33 90q-1 1 -2 5t-2 6q-13 39 -21 86q-8 -51 -20 -86q-4 -13 -37 -101l-250 -653 h-76z" />
<glyph unicode="x" horiz-adv-x="892" d="M-39 0l412 526l-365 469h158l219 -305l37 -53q7 -5 14 -25q0 -2 3.5 -9.5t4.5 -12.5q12 23 25 49l39 51l219 305h156l-363 -469l412 -526h-156l-262 352q-42 55 -70 113q-21 -55 -65 -113l-266 -352h-152z" />
<glyph unicode="y" horiz-adv-x="854" d="M-55 995h135l309 -725q28 -70 43 -139q14 68 23 86l26 62l299 716h131l-465 -1085l-26 -62q-30 -70 -45.5 -97.5t-40.5 -59.5q-73 -99 -225 -99q-63 0 -154 23l29 109q74 -21 122 -21q113 0 173 111q30 56 94 209z" />
<glyph unicode="z" horiz-adv-x="958" d="M18 0v72l666 749q37 43 102 90q-119 -18 -147 -18h-567v102h854v-67l-662 -746q-45 -52 -106 -100q112 22 145 22h637v-104h-922z" />
<glyph unicode="{" horiz-adv-x="661" d="M109 737q56 3 90 43t34 103v690q0 61 40 94t116 33h115v-64h-23q-74 0 -97.5 -25t-23.5 -102v-616q0 -63 -38 -106.5t-97 -49.5q59 -6 97 -49t38 -106v-617q0 -78 23 -102.5t98 -24.5h23v-63h-115q-76 0 -116 33t-40 94v690q0 97 -77 133q-16 8 -47 12z" />
<glyph unicode="|" horiz-adv-x="354" d="M109 0v1475h110v-1475h-110z" />
<glyph unicode="}" horiz-adv-x="661" d="M109 -162h22q74 0 97.5 25t23.5 102v617q0 63 37 106t96 49q-59 6 -96 49.5t-37 106.5v616q0 77 -23.5 102t-97.5 25h-22v64h114q76 0 115 -33t39 -94v-690q0 -62 35.5 -102.5t91.5 -43.5q-33 -4 -47 -12q-80 -36 -80 -133v-690q0 -61 -39 -94t-115 -33h-114v63z" />
<glyph unicode="~" horiz-adv-x="616" d="M4 1577v109q86 24 137 24q37 0 105 -14q2 -1 28 -8.5t48 -12.5q55 -14 120 -14q56 0 91 8.5t77 34.5v-115q-91 -30 -161 -30q-47 0 -142 20l-71 16q-53 11 -84 11q-76 0 -148 -29z" />
<glyph unicode="&#xa1;" horiz-adv-x="432" d="M121 1411q0 38 27.5 64t64.5 26q40 0 68 -26t28 -64q0 -40 -27 -68t-67 -28q-38 0 -66 28t-28 68zM160 0v1157h110v-1157h-110z" />
<glyph unicode="&#xa2;" horiz-adv-x="987" d="M76 489q0 211 131 358t338 167v162h80v-158h43q82 0 155 -23q59 -16 125 -57l-47 -109q-68 48 -117 62q-60 18 -159 18v-829q84 2 147 24q60 20 129 70l47 -102q-88 -55 -139 -72q-44 -17 -80 -22t-104 -7v-157h-80v159q-207 15 -338 160t-131 356zM197 492 q0 -157 96.5 -271t251.5 -137v821q-154 -26 -251 -141t-97 -272z" />
<glyph unicode="&#xa3;" horiz-adv-x="1118" d="M61 0v111l232 456h-230v111h289l193 366q70 134 119 205t108 121q60 51 124.5 81t160.5 54v-116q-72 -17 -119 -41.5t-98 -69.5q-50 -43 -92 -104t-99 -170l-170 -326h307v-111h-366l-230 -452h863v-115h-992z" />
<glyph unicode="&#xa4;" horiz-adv-x="1011" d="M109 438l133 133q-60 76 -60 166q-3 87 58 168l-131 125l14 17l12 16l15 14l16 15l133 -129q72 57 166 57q99 0 172 -55l129 129q9 -6 18 -15q25 -22 43 -49l-133 -125q54 -75 53.5 -168t-55.5 -168l133 -133l-14 -14l-12 -12l-19 -17l-16 -14l-129 133 q-73 -57 -167.5 -57t-168.5 57l-133 -131q-34 23 -57 57zM274 737q0 -79 56.5 -135.5t134.5 -56.5q80 0 137 57q56 56 56 135t-56 135q-58 58 -137 58q-78 0 -134.5 -57t-56.5 -136z" />
<glyph unicode="&#xa5;" horiz-adv-x="1226" d="M78 1477h145l342 -603q35 -62 47 -118q15 58 50 118l342 603h145l-391 -689h346v-106h-404l-22 -25v-32h426l-2 -111h-422l-2 -514h-127l2 514h-414v111h412v32l-8 27h-402v104h340z" />
<glyph unicode="&#xa7;" horiz-adv-x="1107" d="M72 631q0 101 59 187t172 149q-17 16 -45 53q-45 76 -45 176q0 134 103.5 221.5t261.5 87.5q155 0 250 -81.5t112 -229.5l-113 -14q-13 102 -79.5 158.5t-172.5 56.5q-101 0 -171 -59.5t-70 -145.5q0 -65 39.5 -124t109.5 -99l379 -217q174 -100 174 -287 q0 -212 -227 -342q36 -36 55 -70q35 -82 35 -155q0 -135 -102.5 -224.5t-257.5 -89.5q-160 0 -255 82t-114 234l115 10q13 -105 78 -160t174 -55q105 0 172 56.5t67 144.5q0 152 -137 231l-406 237q-78 46 -119.5 115t-41.5 154zM195 637q0 -129 122 -197l404 -229 q190 82 190 258q0 125 -110 188l-412 234q-194 -93 -194 -254z" />
<glyph unicode="&#xa8;" horiz-adv-x="468" d="M-59 1200q0 40 27 67t65 27q40 0 68 -27t28 -65q0 -40 -27 -67t-67 -27t-67 27t-27 65zM338 1202q0 38 28 65t68 27q38 0 65 -27t27 -67q0 -38 -27 -65t-67 -27q-39 0 -66.5 27.5t-27.5 66.5z" />
<glyph unicode="&#xa9;" horiz-adv-x="1908" d="M119 739q0 155 60.5 296.5t163 244t244 163t296.5 60.5t296.5 -60.5t244 -163t163 -244t60.5 -296.5t-60.5 -296.5t-163 -244t-244 -163t-296.5 -60.5t-296.5 60.5t-244 163t-163 244t-60.5 296.5zM209 739q0 -136 52 -262t147 -223q129 -130 302 -176t346 0t302 176 q130 132 176 308t0 352.5t-176 308.5q-129 131 -302 177.5t-346 0t-302 -177.5q-95 -97 -147 -223t-52 -261zM396.5 740.5q2.5 89.5 35.5 177.5q63 174 221 263.5t351 57.5q138 -24 245 -117l-53 -73q-87 77 -197 98q-117 22 -223.5 -15.5t-178.5 -124.5t-91 -204 q-17 -110 14 -208t103 -169q101 -100 244.5 -114.5t271.5 63.5q35 24 55 41l53 -74q-140 -119 -329 -125q-89 -2 -171.5 24t-146.5 73t-111.5 114.5t-71 145t-21 167z" />
<glyph unicode="&#xaa;" horiz-adv-x="983" d="M115 1073q-12 71 0 141q18 96 76 166t138.5 99t164.5 12q122 -26 182 -135l10 -19l6 -12v150h109v-662h-111v160q0 -11 -6 -17q-26 -65 -85.5 -107t-134 -50t-155.5 22q-77 32 -127 97t-67 155zM131 610v101h670v-101h-670zM221 1147q0 -33 4 -49q18 -103 103 -162 q61 -41 131.5 -41t130.5 43q78 58 98 156q16 87 -16 159q-9 21 -21 39q-40 63 -105.5 91t-134 13.5t-118.5 -67.5q-52 -55 -68 -137q-4 -28 -4 -45z" />
<glyph unicode="&#xab;" horiz-adv-x="1028" d="M78 498l452 463l78 -80l-375 -381l373 -383l-78 -82zM418 498l456 463l76 -80l-375 -381l373 -383l-78 -82z" />
<glyph unicode="&#xac;" horiz-adv-x="1245" d="M109 737v111h933v-406h-98v295h-835z" />
<glyph unicode="&#xad;" horiz-adv-x="630" d="M78 442v115h475v-115h-475z" />
<glyph unicode="&#xae;" horiz-adv-x="1908" d="M119 739q0 155 60.5 296.5t163 244t244 163t296.5 60.5t296.5 -60.5t244 -163t163 -244t60.5 -296.5t-60.5 -296.5t-163 -244t-244 -163t-296.5 -60.5t-296.5 60.5t-244 163t-163 244t-60.5 296.5zM209 739q0 -136 52 -262t147 -223q129 -130 302 -176t346 0t302 176 q130 132 176 308t0 352.5t-176 308.5q-129 131 -302 177.5t-346 0t-302 -177.5q-95 -97 -147 -223t-52 -261zM655 254v989h209q84 0 131 -13t86 -46q69 -57 84 -148q23 -129 -40.5 -216t-186.5 -101q-12 -2 -37 -2l318 -463h-123l-336 500v-500h-105zM760 782h84 q108 0 164.5 48t58.5 137q2 90 -52 139t-155 49h-100v-373z" />
<glyph unicode="&#xaf;" horiz-adv-x="638" d="M-2 1124v103h645v-103h-645z" />
<glyph unicode="&#xb1;" horiz-adv-x="1216" d="M90 39v139h946v-139h-946zM90 539v139h404v250h139v-250h403v-139h-403v-250h-139v250h-404z" />
<glyph unicode="&#xb4;" horiz-adv-x="497" d="M109 1157l321 264l80 -86l-344 -243z" />
<glyph unicode="&#xb5;" horiz-adv-x="1275" d="M150 -285q0 5 0.5 19.5t1.5 43t2 56.5q4 132 4 182q0 117 -2 207q-4 180 -4 195v502h188v-607q0 -143 29 -194q27 -49 102 -49q117 -3 195 163q77 168 77 420v267h189v-672q0 -92 18 -135q18 -40 60 -43q41 0 65 43q23 44 23 125v28h43q0 -10 2 -18v-27q0 -114 -49 -178 q-46 -61 -136 -61q-98 -3 -155 88q-50 81 -53 264q-47 -182 -125 -266q-77 -83 -199 -86q-91 0 -150 53q-56 51 -81 158q0 -4 -1 -23.5t-1 -34.5q-3 -129 65 -289q66 -160 66 -188q0 -41 -23 -64q-22 -22 -63 -22q-47 -3 -68 35q-17 28 -20 108z" />
<glyph unicode="&#xb6;" horiz-adv-x="1302" d="M109 1092q0 160 110.5 271.5t267.5 111.5h609v-89h-609q-121 0 -206 -87.5t-82 -211.5q1 -121 85.5 -204.5t202.5 -83.5h148v506h90v-1305h-90v711h-148q-157 0 -267.5 111.5t-110.5 269.5zM868 0v1305h90v-1305h-90z" />
<glyph unicode="&#xb7;" d="M500 475q0 40 29 69t69 29t67 -29.5t27 -70.5q0 -38 -27 -65t-67 -27q-41 0 -69.5 27t-28.5 67z" />
<glyph unicode="&#xb8;" horiz-adv-x="346" d="M45 -332l209 279l92 -56l-227 -266z" />
<glyph unicode="&#xba;" horiz-adv-x="985" d="M109 1151q0 33 6 68q16 83 63.5 149t114 100t145.5 39.5t158 -30.5q79 -34 131.5 -101t69.5 -157q12 -69 0 -138q-20 -108 -93 -183t-178 -97q-70 -15 -141 0q-105 22 -177.5 97t-92.5 183q-6 35 -6 70zM121 610v101h670v-101h-670zM219 1151q0 -80 35 -139 q39 -67 107.5 -97t141.5 -15t124 71q49 55 61 131q15 105 -31 186q-39 67 -107 97.5t-140.5 15.5t-124.5 -72q-66 -72 -66 -178z" />
<glyph unicode="&#xbb;" horiz-adv-x="1028" d="M78 119l377 379l-377 387l78 78l450 -467l-448 -459zM418 119l377 379l-375 387l78 78l452 -467l-452 -459z" />
<glyph unicode="&#xbf;" horiz-adv-x="1011" d="M49 444q0 180 109 304q66 78 153 116q3 0 148 54q8 4 24 8q23 8 30 11.5t11 12.5q13 17 13 58v143h116v-166q0 -71 -18.5 -99.5t-73.5 -43.5l-43 -13q-183 -52 -267.5 -145.5t-84.5 -239.5q0 -161 100 -264.5t254 -103.5q157 0 256 97t103 255l114 -18 q-17 -202 -144 -320.5t-327 -118.5q-204 -1 -338.5 134t-134.5 339zM500 1401q0 38 28 66t66 28t65 -28t27 -66q0 -39 -26.5 -65.5t-65.5 -26.5t-66.5 26.5t-27.5 65.5z" />
<glyph unicode="&#xc0;" horiz-adv-x="1236" d="M-59 0l624 1477h109l620 -1477h-135l-196 469h-689l-198 -469h-135zM287 1886l82 86l321 -264l-63 -66zM322 582h596l-254 616q-27 61 -46 143q-21 -87 -45 -143z" />
<glyph unicode="&#xc1;" horiz-adv-x="1236" d="M-59 0l624 1477h109l620 -1477h-135l-196 469h-689l-198 -469h-135zM322 582h596l-254 616q-27 61 -46 143q-21 -87 -45 -143zM565 1710l322 264l80 -86l-344 -243z" />
<glyph unicode="&#xc2;" horiz-adv-x="1236" d="M-59 0l624 1477h109l620 -1477h-135l-196 469h-689l-198 -469h-135zM301 1729l332 227l328 -227l-54 -84l-274 180l-279 -176zM322 582h596l-254 616q-27 61 -46 143q-21 -87 -45 -143z" />
<glyph unicode="&#xc3;" horiz-adv-x="1236" d="M-59 0l624 1477h109l620 -1477h-135l-196 469h-689l-198 -469h-135zM322 582h596l-254 616q-27 61 -46 143q-21 -87 -45 -143zM352 1675v111q71 24 133 24q25 0 103 -16q4 -1 27 -6.5t44 -9.5q72 -19 119 -19q51 0 87 10.5t77 36.5v-116q-95 -33 -160 -33q-56 0 -135 20 l-72 19q-36 8 -81 8q-73 0 -142 -29z" />
<glyph unicode="&#xc4;" horiz-adv-x="1236" d="M-59 0l624 1477h109l620 -1477h-135l-196 469h-689l-198 -469h-135zM303 1483q0 40 27 68t67 28t68.5 -28t28.5 -68q0 -39 -28.5 -66.5t-68.5 -27.5t-67 27t-27 67zM322 582h596l-254 616q-27 61 -46 143q-21 -87 -45 -143zM750 1483q0 39 28.5 67.5t67.5 28.5 q40 0 68 -28t28 -68t-27 -67t-67 -27t-69 27.5t-29 66.5z" />
<glyph unicode="&#xc5;" horiz-adv-x="1226" d="M-59 0l608 1419q-61 40 -84 73.5t-23 82.5v8q0 72 52.5 122t121.5 50t120.5 -50t51.5 -122v-8q0 -49 -23 -82.5t-85 -73.5l606 -1419h-131l-199 473h-688l-196 -473h-131zM317 582h592l-250 616q-27 68 -47 143q-15 -74 -45 -143zM516 1583q0 -40 29.5 -70t70.5 -30 t70 30t29 72q0 41 -29 71t-70 30t-70.5 -30.5t-29.5 -72.5z" />
<glyph unicode="&#xc6;" horiz-adv-x="1720" d="M-59 0l933 1477h760v-113h-600v-496l527 2l-2 -114h-525v-645h625v-111h-752v471h-520l-309 -471h-137zM455 582h452v751z" />
<glyph unicode="&#xc7;" horiz-adv-x="1386" d="M76 725q0 164 59 308.5t160.5 247.5t244 162.5t304.5 59.5q142 0 272 -47q57 -20 101.5 -45.5t119.5 -81.5l-65 -96q-71 54 -90 67q-70 43 -159 68t-177 25q-135 0 -255 -51.5t-206 -139.5t-136 -210.5t-50 -260.5q0 -135 49.5 -255.5t134 -207t203 -136.5t252.5 -50 q129 0 256 53q46 19 80.5 40t91.5 65l69 -97q-42 -32 -94 -63q-180 -111 -412 -111q-211 0 -383.5 99t-271 272.5t-98.5 384.5zM553 -328l207 281l86 -57l-219 -267z" />
<glyph unicode="&#xc8;" horiz-adv-x="940" d="M131 0v1477h723v-113h-600v-496h528v-110h-528v-647h625v-111h-748zM193 1886l81 86l322 -264l-64 -66z" />
<glyph unicode="&#xc9;" horiz-adv-x="940" d="M131 0v1477h723v-113h-600v-496h528v-110h-528v-647h625v-111h-748zM403 1710l322 264l80 -86l-344 -243z" />
<glyph unicode="&#xca;" horiz-adv-x="940" d="M131 0v1477h723v-113h-600v-496h528v-110h-528v-647h625v-111h-748zM170 1729l332 227l327 -227l-53 -84l-274 180l-279 -176z" />
<glyph unicode="&#xcb;" horiz-adv-x="940" d="M131 0v1477h723v-113h-600v-496h528v-110h-528v-647h625v-111h-748zM201 1753q0 40 27 67t65 27q40 0 68 -27t28 -65q0 -40 -27 -67t-67 -27t-67 27t-27 65zM598 1755q0 38 28 65t68 27q38 0 65 -27t27 -67q0 -38 -27 -65t-67 -27q-39 0 -66.5 27.5t-27.5 66.5z" />
<glyph unicode="&#xcc;" horiz-adv-x="385" d="M-131 1886l82 86l321 -264l-63 -66zM131 0v1477h123v-1477h-123z" />
<glyph unicode="&#xcd;" horiz-adv-x="385" d="M131 0v1477h123v-1477h-123zM133 1710l322 264l80 -86l-345 -243z" />
<glyph unicode="&#xce;" horiz-adv-x="385" d="M-135 1729l332 227l327 -227l-53 -84l-274 180l-279 -176zM131 0v1477h123v-1477h-123z" />
<glyph unicode="&#xcf;" horiz-adv-x="385" d="M-94 1753q0 40 27 67t65 27q40 0 68 -27t28 -65q0 -40 -27 -67t-67 -27t-67 27t-27 65zM131 0v1477h123v-1477h-123zM303 1755q0 38 28 65t68 27q39 0 66 -27.5t27 -66.5q0 -38 -27.5 -65t-67.5 -27q-39 0 -66.5 27.5t-27.5 66.5z" />
<glyph unicode="&#xd1;" horiz-adv-x="1585" d="M131 0v1477h98l1018 -1160q46 -54 60.5 -74t35.5 -59q-12 102 -12 172v1121h125v-1477h-92l-1040 1180q-45 50 -82 112q12 -73 12 -151v-1141h-123zM537 1675v111q71 24 133 24q24 0 102 -16q4 -1 14 -3t26 -6t32 -7q72 -19 119 -19q51 0 86 10.5t77 36.5v-116 q-95 -33 -159 -33q-57 0 -136 20l-71 19q-36 8 -82 8q-72 0 -141 -29z" />
<glyph unicode="&#xd2;" horiz-adv-x="1695" d="M76 737q0 162 59 305.5t161.5 245t245.5 160.5t306 59q162 0 305.5 -59t246 -161t161.5 -245t59 -305t-59 -304.5t-161.5 -244t-246 -160.5t-305.5 -59t-305.5 59t-246 160.5t-161.5 244t-59 304.5zM199 737q0 -183 85 -333t234 -236t330 -86q136 1 256.5 51.5 t206.5 137.5t136 208t50 258q0 138 -50 260t-136 209.5t-206.5 138t-256.5 50.5q-135 0 -255.5 -50.5t-207 -138t-136.5 -209.5t-50 -260zM559 1886l82 86l322 -264l-64 -66z" />
<glyph unicode="&#xd3;" horiz-adv-x="1695" d="M76 737q0 162 59 305.5t161.5 245t245.5 160.5t306 59q162 0 305.5 -59t246 -161t161.5 -245t59 -305t-59 -304.5t-161.5 -244t-246 -160.5t-305.5 -59t-305.5 59t-246 160.5t-161.5 244t-59 304.5zM199 737q0 -183 85 -333t234 -236t330 -86q136 1 256.5 51.5 t206.5 137.5t136 208t50 258q0 138 -50 260t-136 209.5t-206.5 138t-256.5 50.5q-135 0 -255.5 -50.5t-207 -138t-136.5 -209.5t-50 -260zM786 1710l322 264l80 -86l-344 -243z" />
<glyph unicode="&#xd4;" horiz-adv-x="1695" d="M76 737q0 162 59 305.5t161.5 245t245.5 160.5t306 59q162 0 305.5 -59t246 -161t161.5 -245t59 -305t-59 -304.5t-161.5 -244t-246 -160.5t-305.5 -59t-305.5 59t-246 160.5t-161.5 244t-59 304.5zM199 737q0 -183 85 -333t234 -236t330 -86q136 1 256.5 51.5 t206.5 137.5t136 208t50 258q0 138 -50 260t-136 209.5t-206.5 138t-256.5 50.5q-135 0 -255.5 -50.5t-207 -138t-136.5 -209.5t-50 -260zM530 1729l332 227l328 -227l-53 -84l-275 180l-278 -176z" />
<glyph unicode="&#xd5;" horiz-adv-x="1695" d="M76 737q0 162 59 305.5t161.5 245t245.5 160.5t306 59q162 0 305.5 -59t246 -161t161.5 -245t59 -305t-59 -304.5t-161.5 -244t-246 -160.5t-305.5 -59t-305.5 59t-246 160.5t-161.5 244t-59 304.5zM199 737q0 -183 85 -333t234 -236t330 -86q136 1 256.5 51.5 t206.5 137.5t136 208t50 258q0 138 -50 260t-136 209.5t-206.5 138t-256.5 50.5q-135 0 -255.5 -50.5t-207 -138t-136.5 -209.5t-50 -260zM590 1675v111q71 24 133 24q24 0 102 -16q4 -1 14 -3t26 -6t32 -7q72 -19 119 -19q51 0 87 10.5t77 36.5v-116q-95 -33 -160 -33 q-56 0 -135 20l-72 19q-36 8 -82 8q-72 0 -141 -29z" />
<glyph unicode="&#xd6;" horiz-adv-x="1695" d="M76 737q0 162 59 305.5t161.5 245t245.5 160.5t306 59q162 0 305.5 -59t246 -161t161.5 -245t59 -305t-59 -304.5t-161.5 -244t-246 -160.5t-305.5 -59t-305.5 59t-246 160.5t-161.5 244t-59 304.5zM199 737q0 -183 85 -333t234 -236t330 -86q136 1 256.5 51.5 t206.5 137.5t136 208t50 258q0 138 -50 260t-136 209.5t-206.5 138t-256.5 50.5q-135 0 -255.5 -50.5t-207 -138t-136.5 -209.5t-50 -260zM199 1481q0 40 29 69t69 29q39 0 66.5 -29t27.5 -69t-27.5 -67.5t-68.5 -27.5q-39 0 -67.5 28t-28.5 67zM1311 1481q0 40 28 69t68 29 q41 0 71.5 -29t30.5 -69q0 -39 -30 -67t-72 -28q-40 0 -68 27.5t-28 67.5z" />
<glyph unicode="&#xd7;" d="M227 453l293 288l-287 291l72 72l289 -287l289 287l82 -78l-289 -291l289 -291l-72 -71l-291 289l-293 -291z" />
<glyph unicode="&#xd8;" horiz-adv-x="1708" d="M76 10l200 201q-55 67 -83 111q-55 77 -86 188.5t-31 226.5q0 215 101.5 392t278.5 278.5t392 101.5q151 0 291 -55q71 -29 120 -59t125 -95l199 195l49 -51l-196 -193q63 -81 73 -102q111 -177 111 -412q0 -215 -101.5 -391.5t-278.5 -277.5t-392 -101q-159 0 -291 53 q-60 24 -104 52.5t-121 91.5l-205 -201zM207 735q0 -199 96 -350q41 -58 64 -86l936 918q-63 50 -103 74t-96 46q-118 47 -248 47q-133 0 -253.5 -51t-207 -137.5t-137.5 -207t-51 -253.5zM418 246q59 -50 95.5 -73t88.5 -44q118 -47 246 -47q182 0 331 86t233.5 236 t84.5 333q0 201 -92 346q-20 32 -55 80z" />
<glyph unicode="&#xd9;" horiz-adv-x="1310" d="M131 569v908h123v-904q0 -120 14 -202q26 -133 129.5 -210t257.5 -77q95 0 176 32t134 91q57 62 74.5 130.5t17.5 235.5v904h125v-908q0 -161 -15 -235q-34 -166 -173 -265.5t-337 -99.5q-112 0 -215.5 38t-171.5 104q-83 79 -111 172.5t-28 285.5zM367 1886l82 86 l321 -264l-63 -66z" />
<glyph unicode="&#xda;" horiz-adv-x="1310" d="M131 569v908h123v-904q0 -120 14 -202q26 -133 129.5 -210t257.5 -77q95 0 176 32t134 91q57 62 74.5 130.5t17.5 235.5v904h125v-908q0 -161 -15 -235q-34 -166 -173 -265.5t-337 -99.5q-112 0 -215.5 38t-171.5 104q-83 79 -111 172.5t-28 285.5zM612 1710l322 264 l80 -86l-344 -243z" />
<glyph unicode="&#xdb;" horiz-adv-x="1310" d="M131 569v908h123v-904q0 -120 14 -202q26 -133 129.5 -210t257.5 -77q95 0 176 32t134 91q57 62 74.5 130.5t17.5 235.5v904h125v-908q0 -161 -15 -235q-34 -166 -173 -265.5t-337 -99.5q-112 0 -215.5 38t-171.5 104q-83 79 -111 172.5t-28 285.5zM348 1729l332 227 l328 -227l-54 -84l-274 180l-279 -176z" />
<glyph unicode="&#xdc;" horiz-adv-x="1310" d="M131 580v907h123v-903q0 -134 14 -203q25 -131 129 -209t258 -78q95 0 176 32t134 91q57 62 74.5 131t17.5 236v903h125v-907q0 -164 -15 -234q-34 -166 -173 -266t-337 -100q-113 0 -216.5 37.5t-170.5 103.5q-83 79 -111 173t-28 286zM397 1495q0 38 28.5 65t68.5 27 q38 0 65 -27t27 -67t-29.5 -69t-67.5 -27t-65 30t-27 68zM745 1493q0 40 27.5 67t67.5 27q38 0 66 -27t28 -65q0 -40 -27 -69t-65 -29t-67.5 29t-29.5 67z" />
<glyph unicode="&#xdf;" horiz-adv-x="1093" d="M131 0v1116q0 169 111 279t280 110q166 0 277.5 -109t111.5 -270q0 -113 -52.5 -194t-151.5 -119q146 -25 234.5 -133.5t88.5 -263.5q0 -192 -124.5 -319.5t-313.5 -127.5q-112 0 -209 51l35 113q85 -51 178 -51q132 0 222.5 97.5t90.5 238.5q0 151 -94 236t-260 85h-139 l2 113h92q125 0 205 77t80 197q0 116 -78 193.5t-195 77.5q-124 0 -198 -80t-74 -215v-1102h-119z" />
<glyph unicode="&#xe0;" horiz-adv-x="1226" d="M76 496q0 223 146.5 376.5t359.5 153.5q98 0 186.5 -37t151.5 -104q34 -39 59 -82v192h117v-995h-117v197q-35 -60 -51 -78q-63 -72 -152.5 -111t-193.5 -39q-220 0 -363 149t-143 378zM199 500q0 -184 113 -304t286 -120q169 0 278 119.5t109 306.5q0 183 -110.5 301.5 t-280.5 118.5q-166 0 -280.5 -122.5t-114.5 -299.5zM379 1333l82 86l321 -264l-63 -65z" />
<glyph unicode="&#xe1;" horiz-adv-x="1226" d="M76 496q0 223 146.5 376.5t359.5 153.5q98 0 186.5 -37t151.5 -104q34 -39 59 -82v192h117v-995h-117v197q-35 -60 -51 -78q-63 -72 -152.5 -111t-193.5 -39q-220 0 -363 149t-143 378zM199 500q0 -184 113 -304t286 -120q169 0 278 119.5t109 306.5q0 183 -110.5 301.5 t-280.5 118.5q-166 0 -280.5 -122.5t-114.5 -299.5zM524 1157l322 264l80 -86l-344 -243z" />
<glyph unicode="&#xe2;" horiz-adv-x="1226" d="M76 496q0 223 146.5 376.5t359.5 153.5q98 0 186.5 -37t151.5 -104q34 -39 59 -82v192h117v-995h-117v197q-35 -60 -51 -78q-63 -72 -152.5 -111t-193.5 -39q-220 0 -363 149t-143 378zM199 500q0 -184 113 -304t286 -120q169 0 278 119.5t109 306.5q0 183 -110.5 301.5 t-280.5 118.5q-166 0 -280.5 -122.5t-114.5 -299.5zM303 1176l332 227l328 -227l-54 -84l-274 180l-279 -176z" />
<glyph unicode="&#xe3;" horiz-adv-x="1226" d="M76 496q0 223 146.5 376.5t359.5 153.5q98 0 186.5 -37t151.5 -104q34 -39 59 -82v192h117v-995h-117v197q-35 -60 -51 -78q-63 -72 -152.5 -111t-193.5 -39q-220 0 -363 149t-143 378zM199 500q0 -184 113 -304t286 -120q169 0 278 119.5t109 306.5q0 183 -110.5 301.5 t-280.5 118.5q-166 0 -280.5 -122.5t-114.5 -299.5zM340 1122v111q71 24 133 24q24 0 102 -16q4 -1 14 -3t26 -6t32 -7q72 -19 119 -19q51 0 87 10.5t77 36.5v-116q-95 -33 -160 -33q-56 0 -135 20l-72 19q-36 8 -82 8q-72 0 -141 -29z" />
<glyph unicode="&#xe4;" horiz-adv-x="1226" d="M76 496q0 223 146.5 376.5t359.5 153.5q98 0 186.5 -37t151.5 -104q34 -39 59 -82v192h117v-995h-117v197q-35 -60 -51 -78q-63 -72 -152.5 -111t-193.5 -39q-220 0 -363 149t-143 378zM199 500q0 -184 113 -304t286 -120q169 0 278 119.5t109 306.5q0 183 -110.5 301.5 t-280.5 118.5q-166 0 -280.5 -122.5t-114.5 -299.5zM346 1266q0 40 27 67t65 27q40 0 68.5 -27t28.5 -65q0 -40 -27.5 -67t-67.5 -27t-67 27t-27 65zM743 1268q0 38 28.5 65t68.5 27q38 0 65 -27t27 -67q0 -38 -27 -65t-67 -27q-39 0 -67 27.5t-28 66.5z" />
<glyph unicode="&#xe5;" horiz-adv-x="1228" d="M76 496q0 224 148 380t360 156q98 0 187 -37.5t151 -103.5q16 -16 57 -80v184h119v-995h-119v195q-23 -45 -49 -78q-59 -69 -151.5 -109.5t-194.5 -40.5q-142 0 -258.5 69t-183 190.5t-66.5 269.5zM201 498q0 -183 114 -304.5t285 -121.5q169 0 278 120.5t109 309.5 t-108.5 306.5t-280.5 117.5q-168 0 -282.5 -123.5t-114.5 -304.5zM451 1266q0 72 50.5 122t121.5 50q72 0 122 -49.5t50 -120.5q0 -72 -50 -123t-122 -51q-71 0 -121.5 51t-50.5 121zM524 1268q0 -41 29 -71t70 -30t70.5 30t29.5 71t-29.5 69.5t-70.5 28.5t-70 -28.5 t-29 -69.5z" />
<glyph unicode="&#xe6;" horiz-adv-x="1865" d="M76 303q0 149 125 245.5t319 96.5q144 0 246 -51q36 -17 76 -55q-3 116 -29 196q-28 89 -109 141t-192 52q-126 0 -287 -64l-41 92q57 24 74 29q127 43 252 43q171 0 275.5 -80.5t121.5 -222.5q29 137 139.5 217t270.5 80q210 0 347.5 -140t137.5 -356q0 -8 -4 -82h-850 q3 -170 104.5 -271t268.5 -101q250 0 362 237l103 -51q-75 -150 -188 -220.5t-279 -70.5q-113 0 -206.5 39.5t-156.5 112.5q-28 35 -53 96q-43 -121 -152.5 -185.5t-269.5 -64.5q-177 0 -291 95.5t-114 242.5zM190 303q0 -104 82 -167.5t217 -63.5q154 0 252.5 79.5 t98.5 206.5q0 60 -25.5 95.5t-85.5 60.5q-85 35 -192 35q-156 0 -251.5 -68.5t-95.5 -177.5zM950 549h725q-3 170 -100 271.5t-258 101.5q-160 0 -260 -101.5t-107 -271.5z" />
<glyph unicode="&#xe7;" horiz-adv-x="987" d="M76 489q0 231 156 384t393 153q86 0 198 -33q68 -22 125 -57l-47 -107q-13 8 -32 19.5t-25 15.5q-103 54 -221 54q-181 0 -302.5 -122t-121.5 -304q0 -178 118 -296t295 -118q83 0 160 26q56 20 129 70l47 -102q-13 -7 -36.5 -22t-32.5 -19q-128 -64 -273 -64 q-230 0 -380 147.5t-150 374.5zM367 -332l206 279l86 -56l-219 -266z" />
<glyph unicode="&#xe8;" horiz-adv-x="1130" d="M76 489q0 233 143 385t363 152q212 0 348.5 -141.5t136.5 -360.5q0 -6 -1 -29t-1 -40h-864q12 -175 115 -279t266 -104q248 0 356 239l109 -55q-72 -147 -185 -217t-278 -70q-228 0 -368 144t-140 376zM199 557h739q-4 167 -102 267t-256 100q-153 0 -253 -96.5 t-128 -270.5zM291 1333l82 86l321 -264l-63 -65z" />
<glyph unicode="&#xe9;" horiz-adv-x="1130" d="M76 489q0 233 143 385t363 152q212 0 348.5 -141.5t136.5 -360.5q0 -6 -1 -29t-1 -40h-864q12 -175 115 -279t266 -104q248 0 356 239l109 -55q-72 -147 -185 -217t-278 -70q-228 0 -368 144t-140 376zM199 557h739q-4 167 -102 267t-256 100q-153 0 -253 -96.5 t-128 -270.5zM492 1157l321 264l80 -86l-344 -243z" />
<glyph unicode="&#xea;" horiz-adv-x="1130" d="M76 489q0 233 143 385t363 152q212 0 348.5 -141.5t136.5 -360.5q0 -6 -1 -29t-1 -40h-864q12 -175 115 -279t266 -104q248 0 356 239l109 -55q-72 -147 -185 -217t-278 -70q-228 0 -368 144t-140 376zM199 557h739q-4 167 -102 267t-256 100q-153 0 -253 -96.5 t-128 -270.5zM264 1176l332 227l328 -227l-54 -84l-274 180l-279 -176z" />
<glyph unicode="&#xeb;" horiz-adv-x="1130" d="M76 489q0 233 143 385t363 152q212 0 348.5 -141.5t136.5 -360.5q0 -6 -1 -29t-1 -40h-864q12 -175 115 -279t266 -104q248 0 356 239l109 -55q-72 -147 -185 -217t-278 -70q-228 0 -368 144t-140 376zM199 557h739q-4 167 -102 267t-256 100q-153 0 -253 -96.5 t-128 -270.5zM299 1200q0 40 27 67t65 27q40 0 68 -27t28 -65q0 -40 -27 -67t-67 -27t-67 27t-27 65zM696 1202q0 38 28.5 65t68.5 27q38 0 65 -27t27 -67q0 -38 -27 -65t-67 -27q-39 0 -67 27.5t-28 66.5z" />
<glyph unicode="&#xec;" horiz-adv-x="307" d="M-174 1333l82 86l321 -264l-63 -65zM98 0v995h117v-995h-117z" />
<glyph unicode="&#xed;" horiz-adv-x="307" d="M96 1157l322 264l80 -86l-344 -243zM98 0v995h117v-995h-117z" />
<glyph unicode="&#xee;" horiz-adv-x="307" d="M-168 1176l332 227l328 -227l-54 -84l-274 180l-279 -176zM98 0v995h117v-995h-117z" />
<glyph unicode="&#xef;" horiz-adv-x="307" d="M-129 1200q0 40 27 67t65 27q40 0 68 -27t28 -65q0 -40 -27 -67t-67 -27t-67 27t-27 65zM98 0v995h117v-995h-117zM268 1202q0 38 28.5 65t68.5 27q38 0 65 -27t27 -67q0 -38 -27.5 -65t-67.5 -27q-39 0 -66.5 27.5t-27.5 66.5z" />
<glyph unicode="&#xf1;" horiz-adv-x="1056" d="M131 0v995h117v-192q105 223 342 223q76 0 145 -31t115 -84q43 -52 59.5 -111t16.5 -173v-627h-117v612q0 77 -8 113q-10 87 -78.5 142t-165.5 55q-139 0 -224 -102.5t-85 -270.5v-549h-117zM274 1122v111q71 24 134 24q24 0 102 -16q4 -1 14 -3t26 -6t32 -7 q72 -19 118 -19q51 0 87 10.5t77 36.5v-116q-95 -33 -159 -33q-57 0 -136 20l-71 19q-36 8 -82 8q-73 0 -142 -29z" />
<glyph unicode="&#xf2;" horiz-adv-x="1226" d="M76 498q0 227 152 377.5t384 150.5q234 0 387.5 -150t153.5 -378q0 -229 -153 -379t-388 -150q-232 0 -384 150t-152 379zM197 498q0 -183 118 -302.5t297 -119.5q180 0 299 119.5t119 302.5q0 182 -119 303t-299 121q-178 0 -296.5 -121t-118.5 -303zM342 1333l82 86 l321 -264l-63 -65z" />
<glyph unicode="&#xf3;" horiz-adv-x="1226" d="M76 498q0 227 152 377.5t384 150.5q234 0 387.5 -150t153.5 -378q0 -229 -153 -379t-388 -150q-232 0 -384 150t-152 379zM197 498q0 -183 118 -302.5t297 -119.5q180 0 299 119.5t119 302.5q0 182 -119 303t-299 121q-178 0 -296.5 -121t-118.5 -303zM551 1157l321 264 l80 -86l-344 -243z" />
<glyph unicode="&#xf4;" horiz-adv-x="1226" d="M76 498q0 227 152 377.5t384 150.5q234 0 387.5 -150t153.5 -378q0 -229 -153 -379t-388 -150q-232 0 -384 150t-152 379zM197 498q0 -183 118 -302.5t297 -119.5q180 0 299 119.5t119 302.5q0 182 -119 303t-299 121q-178 0 -296.5 -121t-118.5 -303zM293 1176l332 227 l327 -227l-53 -84l-274 180l-279 -176z" />
<glyph unicode="&#xf5;" horiz-adv-x="1226" d="M76 498q0 227 152 377.5t384 150.5q234 0 387.5 -150t153.5 -378q0 -229 -153 -379t-388 -150q-232 0 -384 150t-152 379zM197 498q0 -183 118 -302.5t297 -119.5q180 0 299 119.5t119 302.5q0 182 -119 303t-299 121q-178 0 -296.5 -121t-118.5 -303zM348 1122v111 q71 24 133 24q25 0 103 -16q4 -1 27 -6.5t44 -9.5q72 -19 119 -19q51 0 87 10.5t77 36.5v-116q-95 -33 -160 -33q-56 0 -135 20l-72 19q-36 8 -82 8q-72 0 -141 -29z" />
<glyph unicode="&#xf6;" horiz-adv-x="1226" d="M76 498q0 227 152 377.5t384 150.5q234 0 387.5 -150t153.5 -378q0 -229 -153 -379t-388 -150q-232 0 -384 150t-152 379zM197 498q0 -183 118 -302.5t297 -119.5q180 0 299 119.5t119 302.5q0 182 -119 303t-299 121q-178 0 -296.5 -121t-118.5 -303zM338 1266 q0 40 28 68t68 28q37 0 64.5 -29t27.5 -67q0 -37 -27.5 -64.5t-64.5 -27.5q-39 0 -67.5 27.5t-28.5 64.5zM717 1266q0 39 27.5 67.5t66.5 28.5t67.5 -28.5t28.5 -67.5q0 -37 -28.5 -64.5t-67.5 -27.5t-66.5 27.5t-27.5 64.5z" />
<glyph unicode="&#xf7;" horiz-adv-x="1216" d="M88 414v139h948v-139h-948zM446 207q0 49 33 82q38 35 84 35q49 0 82 -33t33 -84q0 -50 -35 -82q-30 -35 -80 -35q-49 0 -84 35q-33 38 -33 82zM446 758q0 49 33 82q34 31 84 34q50 0 80 -34q35 -35 35 -82q0 -50 -35 -82q-30 -35 -80 -35q-49 0 -84 35q-33 33 -33 82z " />
<glyph unicode="&#xf8;" horiz-adv-x="1234" d="M76 12l133 135q-33 36 -53 66q-37 51 -58.5 127.5t-21.5 157.5q0 228 152.5 379t383.5 151q94 0 191 -33q47 -14 80 -33t96 -65l135 121l45 -55l-127 -117q30 -38 45 -64q76 -124 76 -286q0 -226 -154 -376.5t-387 -150.5q-92 0 -190 31q-43 15 -75.5 34t-88.5 60 l-127 -129zM201 504q0 -124 55 -223q16 -25 39 -56l604 590q-72 57 -127 76q-82 29 -160 29q-175 0 -293 -119.5t-118 -296.5zM346 176q66 -53 115 -72q73 -28 151 -28q179 0 298.5 120t119.5 300q0 78 -18 136.5t-62 129.5z" />
<glyph unicode="&#xf9;" horiz-adv-x="1048" d="M131 393v602h117v-602q0 -76 8 -117q20 -91 92 -143.5t178 -52.5q139 0 207 77.5t68 235.5v602h121v-602q0 -89 -15 -151q-28 -121 -134 -197t-249 -76q-82 0 -159.5 29t-128.5 80q-58 57 -81.5 128t-23.5 187zM231 1333l82 86l322 -264l-64 -65z" />
<glyph unicode="&#xfa;" horiz-adv-x="1048" d="M131 393v602h117v-602q0 -76 8 -117q20 -91 92 -143.5t178 -52.5q139 0 207 77.5t68 235.5v602h121v-602q0 -89 -15 -151q-28 -121 -134 -197t-249 -76q-82 0 -159.5 29t-128.5 80q-58 57 -81.5 128t-23.5 187zM483 1157l322 264l80 -86l-344 -243z" />
<glyph unicode="&#xfb;" horiz-adv-x="1048" d="M131 393v602h117v-602q0 -76 8 -117q20 -91 92 -143.5t178 -52.5q139 0 207 77.5t68 235.5v602h121v-602q0 -89 -15 -151q-28 -121 -134 -197t-249 -76q-82 0 -159.5 29t-128.5 80q-58 57 -81.5 128t-23.5 187zM205 1176l332 227l327 -227l-53 -84l-274 180l-279 -176z " />
<glyph unicode="&#xfc;" horiz-adv-x="1048" d="M131 393v602h117v-602q0 -76 8 -117q20 -91 92 -143.5t178 -52.5q139 0 207 77.5t68 235.5v602h121v-602q0 -89 -15 -151q-28 -121 -134 -197t-249 -76q-82 0 -159.5 29t-128.5 80q-58 57 -81.5 128t-23.5 187zM256 1264q0 40 27.5 69t66.5 29t67.5 -28.5t28.5 -67.5 t-28.5 -65.5t-67.5 -26.5q-40 0 -67 26t-27 64zM647 1266q0 40 27 68t67 28q38 0 66.5 -29t28.5 -69q0 -38 -28 -64t-67 -26q-40 0 -67 26t-27 66z" />
<glyph unicode="&#xff;" horiz-adv-x="854" d="M-55 995h135l309 -725q28 -70 43 -139q14 68 23 86l26 62l299 716h131l-465 -1085l-26 -62q-30 -70 -45.5 -97.5t-40.5 -59.5q-73 -99 -225 -99q-63 0 -154 23l29 109q74 -21 122 -21q113 0 173 111q30 56 94 209zM162 1200q0 40 27 67t65 27q40 0 68 -27t28 -65 q0 -40 -27 -67t-67 -27t-67 27t-27 65zM559 1202q0 38 28 65t68 27q39 0 66 -27t27 -67q0 -38 -27.5 -65t-67.5 -27q-39 0 -66.5 27.5t-27.5 66.5z" />
<glyph unicode="&#x152;" horiz-adv-x="2174" d="M78 729q0 216 102.5 394t280.5 280t393 102q136 0 257.5 -40.5t205.5 -114.5q21 -17 45 -50v177h723v-113h-600v-496h528v-112h-528v-645h624v-111h-747v172q-23 -27 -47 -51q-78 -72 -197 -112t-256 -40q-165 0 -310.5 58.5t-249.5 159t-164 242t-60 300.5zM201 731 q0 -181 87 -329.5t238.5 -233t335.5 -84.5q131 0 249.5 45t174.5 115q52 66 67 160.5t15 357.5q0 179 -6.5 259.5t-25.5 128t-64 91.5q-72 72 -181.5 112t-232.5 40q-135 0 -257 -51.5t-209.5 -140t-139 -211t-51.5 -259.5z" />
<glyph unicode="&#x153;" horiz-adv-x="2074" d="M76 494q0 226 154 379t382 153q235 0 387 -158q48 -48 95 -137q7 21 24 64q55 107 163.5 167t246.5 60q206 0 345.5 -139t139.5 -344q0 -11 -4 -93h-856q12 -174 112.5 -272t266.5 -98q126 0 213.5 57t144.5 176l105 -51q-26 -50 -44 -76.5t-46 -56.5 q-149 -158 -373 -158q-168 0 -287 81.5t-160 225.5q-40 -93 -75 -135q-69 -83 -171.5 -126.5t-226.5 -43.5q-233 0 -384.5 148.5t-151.5 376.5zM197 494q0 -183 117.5 -300.5t297.5 -117.5q187 0 303.5 121t116.5 315q0 172 -120 286.5t-300 114.5q-179 0 -297 -119 t-118 -300zM1157 551h727q-3 169 -99 268t-257 99q-156 0 -256.5 -99.5t-114.5 -267.5z" />
<glyph unicode="&#x178;" horiz-adv-x="960" d="M-55 1477h145l342 -603q34 -60 49 -118q8 37 16.5 58.5t30.5 59.5l342 603h146l-471 -820v-657h-127v657zM207 1753q0 40 27 67t65 27q40 0 68 -27t28 -65q0 -40 -27 -67t-67 -27t-67 27t-27 65zM604 1755q0 38 28 65t68 27q38 0 65.5 -27.5t27.5 -66.5q0 -38 -27.5 -65 t-67.5 -27q-39 0 -66.5 27.5t-27.5 66.5z" />
<glyph unicode="&#x2c6;" horiz-adv-x="667" d="M4 1176l332 227l328 -227l-54 -84l-274 180l-279 -176z" />
<glyph unicode="&#x2dc;" horiz-adv-x="598" d="M4 1122v111q71 24 133 24q25 0 103 -16q4 -1 27 -6.5t44 -9.5q72 -19 119 -19q51 0 87 10.5t77 36.5v-116q-95 -33 -160 -33q-56 0 -135 20l-72 19q-36 8 -82 8q-72 0 -141 -29z" />
<glyph unicode="&#x2000;" horiz-adv-x="987" />
<glyph unicode="&#x2001;" horiz-adv-x="1974" />
<glyph unicode="&#x2002;" horiz-adv-x="987" />
<glyph unicode="&#x2003;" horiz-adv-x="1974" />
<glyph unicode="&#x2004;" horiz-adv-x="658" />
<glyph unicode="&#x2005;" horiz-adv-x="493" />
<glyph unicode="&#x2006;" horiz-adv-x="329" />
<glyph unicode="&#x2007;" horiz-adv-x="329" />
<glyph unicode="&#x2008;" horiz-adv-x="246" />
<glyph unicode="&#x2009;" horiz-adv-x="394" />
<glyph unicode="&#x200a;" horiz-adv-x="109" />
<glyph unicode="&#x2010;" horiz-adv-x="630" d="M78 442v115h475v-115h-475z" />
<glyph unicode="&#x2011;" horiz-adv-x="630" d="M78 442v115h475v-115h-475z" />
<glyph unicode="&#x2012;" horiz-adv-x="630" d="M78 442v115h475v-115h-475z" />
<glyph unicode="&#x2013;" d="M131 684v107h932v-107h-932z" />
<glyph unicode="&#x2014;" horiz-adv-x="2039" d="M61 684v107h1917v-107h-1917z" />
<glyph unicode="&#x2018;" horiz-adv-x="370" d="M18 1061l201 444l88 -28l-153 -461z" />
<glyph unicode="&#x2019;" horiz-adv-x="372" d="M18 1053l150 460l139 -43l-198 -444z" />
<glyph unicode="&#x201a;" horiz-adv-x="366" d="M18 -248l150 463l135 -43l-197 -446z" />
<glyph unicode="&#x201c;" horiz-adv-x="630" d="M18 1061l201 442l88 -26l-153 -461zM279 1061l202 442l88 -26l-155 -461z" />
<glyph unicode="&#x201d;" horiz-adv-x="632" d="M18 1059l150 463l139 -45l-198 -445zM279 1059l151 463l139 -45l-198 -445z" />
<glyph unicode="&#x201e;" horiz-adv-x="628" d="M18 -248l150 463l135 -43l-197 -446zM279 -248l151 463l135 -43l-198 -446z" />
<glyph unicode="&#x2022;" d="M500 475q0 40 29 69t69 29t67 -29.5t27 -70.5q0 -38 -27 -65t-67 -27q-41 0 -69.5 27t-28.5 67z" />
<glyph unicode="&#x2026;" horiz-adv-x="2039" d="M258 82q0 41 29 70q29 28 69.5 28t69.5 -28q29 -29 29 -70.5t-29 -69.5q-29 -29 -69.5 -29t-69.5 29t-29 70zM940 82q0 41 29 70q29 28 69.5 28t69.5 -28q29 -29 29 -70.5t-29 -69.5q-29 -29 -69.5 -29t-69.5 29t-29 70zM1608 82q0 40 28.5 69t69.5 29t69.5 -29t28.5 -69 q0 -41 -28.5 -69.5t-69.5 -28.5t-69.5 28.5t-28.5 69.5z" />
<glyph unicode="&#x202f;" horiz-adv-x="394" />
<glyph unicode="&#x2039;" horiz-adv-x="686" d="M78 498l452 463l78 -80l-375 -381l373 -383l-78 -82z" />
<glyph unicode="&#x203a;" horiz-adv-x="686" d="M78 119l377 379l-377 387l78 78l450 -467l-448 -459z" />
<glyph unicode="&#x205f;" horiz-adv-x="493" />
<glyph unicode="&#x20ac;" horiz-adv-x="1613" d="M74 575l45 109h129q0 9 -1 26.5t-1 26.5t1 28t1 28h-174l45 108h143q54 269 262.5 437.5t493.5 168.5q311 0 524 -194l-51 -117q-90 94 -211.5 146.5t-261.5 52.5q-230 0 -403 -137.5t-226 -356.5h977l-45 -108h-948q-4 -36 -4 -56q0 -9 1 -26.5t1 -26.5h905l-47 -109 h-840q51 -218 225 -355.5t404 -137.5q140 0 262 52.5t213 146.5l-2 -160q-201 -152 -473 -152q-188 0 -348.5 77.5t-266 215t-141.5 313.5h-188z" />
<glyph unicode="&#x2122;" horiz-adv-x="1634" d="M109 1382v93h440v-93l-170 2v-647h-103v647zM524 737l148 762h33l229 -504l12 -30l4 -11q13 -33 13 -69q4 48 14 71l6 15l10 24l230 504h32l148 -762h-105l-77 445l-4 26l-3 9q-3 28 3 65l-9 -29l-10 -34l-8 -25l-4 -8l-211 -469h-23l-211 469l-6 12l-6 21 q-3 10 -9.5 31.5t-8.5 31.5q5 -33 2 -65l-2 -9l-4 -26l-78 -445h-105z" />
<glyph unicode="&#xe000;" horiz-adv-x="993" d="M0 0v993h993v-993h-993z" />
</font>
</defs>
</svg>
